<svg id="Layer_1" xmlns="http://www.w3.org/2000/svg" viewBox="0 0 72 32">
  <g class="text">
    <path d="M68.2 9.4c0-.1.1-.2.2-.2h.7c.1 0 .2.1.2.2v.7c0 .1-.1.2-.2.2h-.7c-.1 0-.2-.1-.2-.2v-.7zM65.9 3c0-.1.1-.2.2-.2h.7c.1 0 .2.1.2.2v.7c0 .1-.1.2-.2.2h-.7c-.1 0-.2-.1-.2-.2V3z"/>
    <path d="M69.9 4.6c0-.1-.1-.2-.2-.2H69c-.1 0-.2.1-.2.2v2.5c0 .3-.1.3-.3.3h-1c-.2 0-.5 0-.6-.1V4.6c0-.1-.1-.2-.2-.2H66c-.1 0-.2.1-.2.2v2.5c0 .3-.3.3-.5.3h-1c-.2 0-.5 0-.5-.1V2.1c0-.1-.1-.2-.2-.2h-.8c-.1 0-.2.1-.2.2V7c0 .3-.3.3-.5.3H60c-1.1 0-1.5-.2-1.5-1.1v-.4c0-.1-.1-.2-.1-.2h-.6c-.1 0-.1 0-.2.2 0 .2-.1.6-.1.7 0 1.2.5 1.9 2.4 1.9h2.2c.4 0 .9 0 1.2-.2.3.2.8.2 1.2.2h.7c.4 0 .9-.1 1.2-.3.3.2.8.3 1.2.3h.7c.5 0 1.1 0 1.4-.1.1-.1.2-.1.2-.2V5.4v-.8z"/>
    <path d="M59.7 5.1c0-.1 0-.1.2-.1h.1c-.1-.1-.1-.3-.1-.5 0-.6.3-.9 1-.9.1 0 .3 0 .4.1.1 0 .1.1.1.1v.3c0 .1 0 .1-.1.1H61c-.3 0-.4.1-.4.4 0 .2.1.3.1.4h.6c.1 0 .2 0 .2.1v.4h-1.7c-.1 0-.2 0-.2-.1v-.3h.1zM53.7 2.6c-.1 0-.1 0-.1-.1v-.3c0-.1 0-.1.1-.1h.2c-.1-.1-.1-.3-.1-.5 0-.5.3-.7.9-.7.1 0 .3 0 .4.1.1 0 .1 0 .1.1v.2c0 .1 0 .1-.1.1h-.3c-.3 0-.4.1-.4.3s.1.3.2.4h.4c.1 0 .1 0 .1.1v.3c0 .1 0 .1-.1.1h-1.3zM53.8 3.3c0-.1.1-.2.2-.2h.8c.1 0 .2.1.2.2v5c0 .1-.1.2-.2.2H54c-.1 0-.2-.1-.2-.2v-5zM50.6 9.4c0-.1.1-.2.2-.2h.7c.1 0 .2.1.2.2v.7c0 .1-.1.2-.2.2h-.7c-.1 0-.2-.1-.2-.2v-.7zM52.3 4.6c0-.1-.1-.2-.2-.2h-.7c-.1 0-.2.1-.2.2V7c0 .3-.1.3-.3.3h-1.6V4.6c0-.1 0-.1-.1-.2-.2-.1-.8-.1-1.3-.1-1.5 0-2.3.8-2.3 2.1v.2c0 1.2.7 1.9 2 1.9h.6v.3c0 .6-.5.8-1.4.8H46c-.1 0-.2.1-.2.1v.6c0 .1 0 .1.1.2h1c1.2 0 2.1-.3 2.2-1.7v-.4h1.6c.5 0 1.1 0 1.4-.1.1-.1.2-.1.2-.2V5.5v-.9zm-4.1 2.8h-.6c-.6 0-.9-.3-.9-1v-.1c0-.7.4-1 1-1h.5v2.1zM41.3 3.4h.7c.1 0 .2-.1.2-.2v-.6c0-.1-.1-.2-.2-.2h-.7c-.1 0-.2.1-.2.2v.7s.1.1.2.1z"/>
    <path d="M41.7 4.3c-.4 0-1.3.1-1.9.5V2.1c0-.1-.1-.2-.2-.2h-.8c-.1 0-.2.1-.2.2v5.2h-1.5c-.3 0-.4-.1-.4-.3V4.6c0-.1 0-.1-.1-.2-.3-.1-.8-.1-1.2-.1-1.4 0-2.2.6-2.2 1.9v2.1c-.2 0-.5.1-.8.1-1.5 0-1.7-.9-1.7-2.1v-.7c0-.1 0-.2-.1-.2H30c-.1 0-.2.1-.2.2-.1.4-.1.9-.1 1.1 0 1.8.8 2.7 2.7 2.7.6 0 1.2-.1 1.7-.1.1 0 .2-.1.2-.2V6.3c0-.8.3-1 1-1h.4v2c0 .9.4 1.1 1.2 1.1H43.7c.2 0 .2-.1.3-.2.1-.3.1-.9.1-1.2v-.4c0-1.7-.9-2.3-2.4-2.3zm1.4 2.5c0 .5 0 .6-.2.6h-3V5.7c.4-.3 1.2-.4 1.6-.4 1.1 0 1.6.3 1.6 1.4v.1zM31.1 10.1c0-.1.1-.2.2-.2h.6c.1 0 .2.1.2.2v.6c0 .1-.1.2-.2.2h-.6c-.1 0-.2-.1-.2-.2v-.6zM32.7 10.1c0-.1.1-.2.2-.2h.6c.1 0 .2.1.2.2v.6c0 .1-.1.2-.2.2h-.6c-.1 0-.2-.1-.2-.2v-.6zM26 2.1c0-.1.1-.2.2-.2h.8c.1 0 .2.1.2.2v6.1c0 .1-.1.2-.2.2h-.8c-.2 0-.2 0-.2-.1V2.1zM20.1 3c0-.1.1-.2.2-.2h.6c.1 0 .2.1.2.2v.7c0 .1-.1.2-.2.2h-.6c-.1 0-.2-.1-.2-.2V3zM21.6 3c0-.1.1-.2.2-.2h.6c.1 0 .2.1.2.2v.7c0 .1-.1.2-.2.2h-.6c-.1 0-.2-.1-.2-.2V3zM16.2 9.4c0-.1.1-.2.2-.2h.6c.1 0 .2.1.2.2v.7c0 .1-.1.2-.2.2h-.7c-.1 0-.2-.1-.2-.2v-.7h.1z"/>
    <path d="M24.7 2h-.8c-.1 0-.2.1-.2.2v4.9c0 .3-.1.3-.3.3h-1c-.2 0-.5 0-.6-.1V4.6c0-.1-.1-.2-.2-.2H21c-.1 0-.2.1-.2.2v2.5c0 .3-.3.3-.5.3h-.9c-.1 0-.1 0-.2-.1s-.2-.5-.4-.9c-.7-1.5-1.6-2-2.8-2-.3 0-.6 0-.8.1-.1 0-.2.1-.2.2v.6c0 .1.1.1.2.1h.5c1.1 0 1.7.5 2 1.2l.4.9h-4c-.3 0-.5-.1-.5-.4v-5c0-.1-.1-.2-.2-.2h-.8c-.1 0-.2.1-.2.2v5.1c0 1 .5 1.2 1.3 1.2H20.1c.4 0 .9-.1 1.2-.3.3.2.8.3 1.2.3h.6c.5 0 1.2 0 1.4-.1.1-.1.2-.1.2-.2v-6c.2-.1.1-.1 0-.1zM9 9.7c0-.1 0-.2.1-.2h.2c.6 0 .9-.1.9-.8V4.6c0-.1.1-.2.2-.2h.7c.1 0 .2.1.2.2v4c0 .4 0 .8-.2 1.2-.3.5-.7.7-1.5.7h-.5c-.1-.1-.1-.1-.1-.2v-.6zM1.5 6.7c0-.3.1-.8.1-1.1 0-.1.1-.2.2-.2h.7c.1 0 .1.1.1.2v.7c0 1.2.2 2.1 1.7 2.1.3 0 .6 0 .8-.1V6.2c0-1.3.8-1.9 2.2-1.9.4 0 .9 0 1.2.1.1 0 .1.1.1.2v3.7c0 .1-.1.2-.2.2h-.7c-.1 0-.2-.1-.2-.2v-3h-.4c-.6 0-1 .2-1 1V9c0 .1-.1.2-.2.2-.4.1-1.1.1-1.7.1-1.9 0-2.7-.9-2.7-2.6M2.9 10.1c0-.1.1-.2.2-.2h.6c.1 0 .2.1.2.2v.6c0 .1-.1.2-.2.2h-.6c-.1 0-.2-.1-.2-.2v-.6zM4.4 10.1c0-.1.1-.2.2-.2h.6c.1 0 .2.1.2.2v.6c0 .1-.1.2-.2.2h-.6c-.1 0-.2-.1-.2-.2v-.6zM54.4 27.1c-.2-.4-.5-.2-.7 0-.8.7-2.6 1.8-5 1.8-4 0-6.7-3.2-6.7-7.1 0-3.7 2.6-6.8 6.6-6.8 2.1 0 3.6.8 4.5 1.4.6.4.8.4 1.2 0 .2-.4.5-.9.5-.9s.4-.5 0-.8c-.9-.6-3-2-6.2-2-5.3 0-9.1 4-9.1 9.1 0 5.2 3.7 9.4 9.1 9.4 3.5 0 5.7-1.7 6.6-2.4.4-.2.2-.5.1-.8-.2-.1-.6-.6-.9-.9M68 21.5c1.5-.6 2.4-2 2.4-3.9 0-3-2.2-4.7-5.3-4.7h-5.5c-.7 0-.8.7-.8.9v16.4c0 .2 0 .8.8.8h5.6c3.2 0 5.8-1.7 5.8-5.2-.1-1.9-1.2-3.7-3-4.3zm-6.7-6.3H65c1.7 0 2.7 1.2 2.7 2.8 0 1.5-1.1 2.6-2.7 2.6h-3.7v-5.4zm4 13.6h-4v-6.2h4c1.9 0 3 1.3 3 3.1 0 1.9-1.1 3.1-3 3.1zM26.9 12.9h-5.3c-.2 0-.6.2-.6.9v16.4c0 .8.6.8.6.8h5.3c5.4 0 9.1-3.4 9.1-9 0-5.7-3.7-9.1-9.1-9.1zm-.3 15.9h-3.2V15.2h3.2c4.1 0 6.7 2.5 6.7 6.9 0 4.2-2.6 6.7-6.7 6.7zM10.2 12.9H8.7c-.7 0-.9.3-1.1.9-.2.4-6.5 16.7-6.5 16.7s0 .5.6.5h1.6c.4 0 .5-.4.5-.4l1.7-4.8h7.8l1.7 4.8s.2.4.5.4H17c.7 0 .7-.5.7-.5s-6.3-16.2-6.4-16.7c-.2-.5-.3-.9-1.1-.9zM6.3 23.8l1.8-5 1.4-3.3 1.3 3.3 1.8 5H6.3zM35.9 9.4c0-.1.1-.2.2-.2h.7c.1 0 .2.1.2.2v.7c0 .1-.1.2-.2.2h-.7c-.1 0-.2-.1-.2-.2v-.7z"/>
  </g>
</svg>
