<svg id="Layer_1" xmlns="http://www.w3.org/2000/svg" viewBox="0 0 30 32">
  <g class="text">
    <path d="M28.9 16c0-1.9-1.4-2.8-3.4-4.3S20.1 8.1 18 6.9c-2-1.2-5.3-3-7.6-4.1C8.1 1.7 6.2 1 5.1 1s-1.9.3-2.4 1.1c-.6.7-.9 1.7-1.1 3-.2 1.4-.4 3-.4 4.8-.1 1.8-.1 6.1-.1 6.1s0 4.3.1 6.1c.1 1.8.2 3.4.4 4.7.2 1.3.5 2.4 1.1 3.1.5.8 1.3 1.1 2.4 1.1s3-.7 5.3-1.8 5.6-2.9 7.6-4.1c2-1.2 5.5-3.4 7.5-4.8 2-1.5 3.4-2.4 3.4-4.3" />
  </g>
  <g class="icon">
    <path d="M25.8 13.7h-.4c-.2 0-.4.2-.4.4V18c0 .2.2.4.4.4h.4c.2 0 .4-.2.4-.4v-3.9c0-.2-.2-.4-.4-.4m-13.1-1.2h.4c.2 0 .4-.2.4-.4V6c0-.2-.2-.4-.4-.4h-.4c-.2 0-.4.2-.4.4v6.2c0 .2.2.3.4.3m3.9 10.4h-.4c-.2 0-.4.2-.4.4v.4c0 .2.2.4.4.4h.4c.2 0 .4-.2.4-.4v-.4c0-.2-.2-.4-.4-.4M3.5 10.2h5.1c.2 0 .4-.2.4-.4V7.9h1.9c.2 0 .4-.2.4-.4V4.8c0-.2-.2-.4-.4-.4h-.4c-.2 0-.4.2-.4.4v1.9H8.9v-3c0-.2-.2-.4-.4-.4H5.8c-.2 0-.4.2-.4.4v3.9c0 .2.2.4.4.4h1.9v1.2H4.2V4.8c0-.2-.2-.4-.4-.4h-.3c-.2 0-.4.2-.4.4v5c0 .3.2.4.4.4m4.2-3.4H6.6V4.5h1.2v2.3zm15.8 5.7h-.4c-.2 0-.4.2-.4.4v5.4h-2c-.2 0-.4.2-.4.4v1.9h-1.2v-1.9c0-.2-.2-.4-.4-.4H15c-.2 0-.4.2-.4.4v.4c0 .2.2.4.4.4h3.1v1.2h-4.6v-3.5h3.1c.2 0 .4-.2.4-.4v-.4c0-.2-.2-.4-.4-.4h-3.9c-.2 0-.4.2-.4.4v5c0 .2.2.4.4.4h5.4v.8c0 .2.2.4.4.4h.4c.2 0 .4-.2.4-.4v-.8h1.9c.2 0 .4-.2.4-.4v-1.9h2c.2 0 .4-.2.4-.4v-6.2c-.1-.2-.3-.4-.5-.4m-9.2 10.4h-2.7c-.2 0-.4.2-.4.4v1.9h-7V24h5.4c.2 0 .4-.2.4-.4v-.4c0-.2-.2-.4-.4-.4H3.5c-.2 0-.4.2-.4.4V26c0 .2.2.4.4.4H12c.2 0 .4-.2.4-.4v-1.9h1.2v.8c0 .2.2.4.4.4h.4c.2 0 .4-.2.4-.4v-1.6c-.2-.2-.3-.4-.5-.4M5 27.6h-.4c-.2 0-.4.2-.4.4v.4c0 .2.2.4.4.4H5c.2 0 .4-.2.4-.4V28c0-.3-.2-.4-.4-.4m2.3 0h-.4c-.2 0-.4.2-.4.4v.4c0 .2.2.4.4.4h.4c.2 0 .4-.2.4-.4V28c0-.3-.1-.4-.4-.4m-3.8-7c-.2 0-.4.2-.4.4v.4c0 .2.2.4.4.4h.4c.2 0 .4-.2.4-.4V21c0-.2-.2-.4-.4-.4m1.9 0c-.2 0-.4.2-.4.4v.4c0 .2.2.4.4.4h.4c.2 0 .4-.2.4-.4V21c0-.2-.2-.4-.4-.4m1.5.4v.4c0 .2.2.4.4.4h2.7c.2 0 .4-.2.4-.4v-5c0-.2-.2-.4-.4-.4h-.4c-.2 0-.4.2-.4.4v4.3H8.1c-.2-.1-.4.1-.4.3"/>
    <path d="M18.5 16c-.2 0-.4.2-.4.4v.4c0 .2.2.4.4.4h.4c.2 0 .4-.2.4-.4v-.4c0-.2-.2-.4-.4-.4m-1.6-6.9h.4c.2 0 .4-.2.4-.4v-.4c0-.2-.2-.4-.4-.4h-.4c-.2 0-.4.2-.4.4v.4c.1.2.2.4.4.4m-6.5 0h-.4c-.2 0-.4.2-.4.4v.4c0 .2.2.4.4.4h.4c.2 0 .4-.2.4-.4v-.5c0-.2-.2-.3-.4-.3m-2.3 4.6h-.4c-.2 0-.4.2-.4.4v.4c0 .2.2.4.4.4h.4c.2 0 .4-.2.4-.4v-.4c0-.2-.2-.4-.4-.4M21.2 16h-.4c-.2 0-.4.2-.4.4v.4c0 .2.2.4.4.4h.4c.2 0 .4-.2.4-.4v-.4c0-.2-.2-.4-.4-.4"/>
    <path d="M3.5 19.5h5.1c.2 0 .4-.2.4-.4v-2.7c0-.2-.2-.4-.4-.4h-2v-3.5H10v1.9c0 .2.2.4.4.4h10.8c.2 0 .4-.2.4-.4v-3.9c0-.2-.2-.4-.4-.4h-2.7c-.2 0-.4.2-.4.4v.8h-2.3V7.1c0-.2-.2-.4-.4-.4H15c-.2 0-.4.2-.4.4v6.6h-3.5v-1.9c0-.2-.2-.4-.4-.4h-5c-.2 0-.4.2-.4.4v5.1c0 .2.2.4.4.4h1.9v1.2H4.2v-6.6c0-.2-.2-.4-.4-.4h-.3c-.2 0-.4.2-.4.4v7.4s.2.2.4.2m12.3-7h3.5v-1.2h1.2v2.3h-4.6v-1.1z"/>
  </g>
</svg>
