<?xml version="1.0" encoding="utf-8"?>
<!-- Generator: Adobe Illustrator 22.1.0, SVG Export Plug-In . SVG Version: 6.00 Build 0)  -->
<svg version="1.1" id="Layer_1" xmlns="http://www.w3.org/2000/svg" xmlns:xlink="http://www.w3.org/1999/xlink" x="0px" y="0px"
	 viewBox="0 0 380 380" style="enable-background:new 0 0 380 380;" xml:space="preserve">
<style type="text/css">
	.st0{fill:#00A5A5;}
</style>
<path class="st0" d="M172.9,247.9c-0.9-2.7-3.7,1.5-7.8-0.8c-0.8-0.5,2.5-5.1-2.5-0.6c-0.8,0.7-1.3,4.9-1.4,5c-3,4-7.2,1.9-8.8-0.8
	c-1.2-2.3,2.4-6.6,4.2-9.2c-5.8,3.9-12.9,8.4-19.3,3.9c-2.3-1.6-4.1-4.4-7.2-3.8c-2.3,0.5-6.9,4.1-8.1,9.8c3.4-3.5,5.9-4,8.1-3.3
	c2.3,0.7,3.3,2.1,4.6,3.3c4.2,3.9,11.2,1.7,14.9-1.6C148.2,268.9,175.3,254.9,172.9,247.9z M279.9,180.3
	c-1.5-12.8-11.2-21.4-23.4-24.9c0.5,7.9,13.9,23.7,16.2,32.9c0.5-6.6-5.6-19.4-12.5-25.6c10.8,4.4,17.5,12.3,18,18
	c0.9,10.5-2.5,25-12.6,38.6C282.7,208.5,281.4,193.3,279.9,180.3z M134.4,272.6c-0.4,0.7-0.3,1.2,0.4,1.7c0.7,0.5,1.3,0.4,1.7-0.3
	c0.5-0.7,0.4-1.3-0.3-1.8C135.5,271.8,134.9,271.9,134.4,272.6z M318.6,168.8c0.8-0.1,1.1-0.6,1-1.4c-0.1-0.8-0.6-1.2-1.3-1.1
	c-0.9,0.1-1.2,0.6-1.1,1.4C317.3,168.5,317.8,168.9,318.6,168.8z M186.8,338.3l-0.3,0c-0.4,0-0.7,0.3-0.7,0.7l-0.8,9.8l-10.6-0.8
	l0.8-9.8c0-0.4-0.2-0.8-0.7-0.8l-0.3,0c-0.4,0-0.7,0.3-0.7,0.7l-1.5,19.7c0,0.4,0.2,0.8,0.7,0.8l0.3,0c0.4,0,0.7-0.3,0.7-0.7
	l0.7-8.3l10.6,0.8l-0.6,8.3c0,0.2,0,0.4,0.2,0.6c0.1,0.1,0.3,0.2,0.5,0.3l0.3,0c0.4,0,0.7-0.3,0.7-0.7l1.5-19.7
	C187.5,338.7,187.2,338.4,186.8,338.3z M185.2,359.4L185.2,359.4L185.2,359.4L185.2,359.4z M231.1,270.4c0.3-0.1,0.5-0.2,0.7-0.2
	c0.2-0.1,0.3-0.1,0.5-0.1l0.9-0.2c1.6-0.8,2.3-1.7,2.4-2.8l0.2-1.8l0.2-1.3c0-0.4-0.1-0.7-0.4-0.8c-0.4-0.2-1-0.3-1.7-0.3
	c-0.8-0.2-1.2-0.4-1.2-0.7l0.2-0.7l0.4-0.6l1-1c0-0.1,0.1-0.2,0.2-0.5l0.1-0.7c0.1-0.3,0.2-0.6,0.2-0.9c0-0.3-0.1-0.5-0.3-0.5
	c-1,0.3-1.8,1.2-2.3,2.8c-0.6,1.5-0.9,2.9-0.9,4.3c0,0.4,0.2,0.7,0.5,1c0.4,0.2,0.6,0.3,0.8,0.4l1.2,0.2c0.6,0.1,0.9,0.3,0.9,0.5
	c0,0.5-0.4,1-1.1,1.8C232.9,269,232.1,269.7,231.1,270.4z M139.2,259.4c0-0.2,0-0.3-0.2-0.4l-1.2-1.7c-0.7-1-1.1-1.6-1.4-1.7
	c-0.2,0-0.4,0.1-0.7,0.3l-2.1,1.5c-1.1,0.8-1.7,1.4-1.8,1.8c0,0.1,0,0.3,0.2,0.4c0.1,0.1,0.2,0.3,0.4,0.6c0.2,0.3,0.4,0.6,0.8,1.1
	c0.7,1,1.1,1.5,1.3,1.6c0.2,0,0.3,0,0.4,0l2.9-2C138.6,260.2,139.1,259.7,139.2,259.4z M144.7,331.2l-0.3-0.1
	c-0.4-0.1-0.8,0.1-0.9,0.5l-3,8.1c-0.6-0.2-2.3-0.9-3.1-1.2l-1-0.4l-2.4-10.5c0-0.2-0.2-0.5-0.5-0.6l-0.3-0.1
	c-0.4-0.1-0.8,0-0.9,0.4c-0.1,0.2-0.1,0.3,0,0.6l2.2,9.8c-3.4-0.5-5.4,0.6-6.5,3.7l0,0.1c-1.5,3.9,0.1,6.4,5.3,8.4
	c1.1,0.4,3.2,1.1,4.1,1.4c0,0,0.1,0,0.2,0c0.3,0,0.6-0.2,0.8-0.5l6.9-18.6c0.1-0.2,0.1-0.4,0-0.6C145,331.4,144.9,331.3,144.7,331.2
	z M136.9,349.3c-0.8-0.2-2.1-0.7-3.2-1.1c-4.1-1.5-5.3-3.3-4.2-6.2l0-0.1c0.7-1.9,1.8-2.8,3.4-2.8c1,0,2.2,0.3,3.8,0.9
	c0.4,0.1,1,0.4,1.7,0.7c0.5,0.2,1.1,0.4,1.4,0.5L136.9,349.3z M261.5,197.4c1-1.2,1.8-2.9,2.5-5.2c0.3-0.9,0.5-1.8,0.6-2.5
	c0.1-0.7,0.1-1.5,0-2.5c0-1-0.2-2-0.3-3c-0.3-1.5-0.7-3.1-1.3-4.7c-0.6-1.6-1.3-3.1-2.1-4.4c-8.4-13.3-14.5-17.2-31.8-20.5
	c9.8,14.5,20.7,20.4,25.2,27c-5.2-8.6-12.7-16-17.8-20.4c11.4,2.3,24.2,12.6,26.2,22c1.3,5.9-3,10.4-5.9,10.9l0,0l-0.6,0.1
	c-1.4,0.2-2.5,0.2-3.2-0.2c-0.8-0.4-1.3-1-1.5-1.8c-0.1-0.4,0.1-1.3,0.5-2.6c0.1-0.4,0.2-0.7,0.3-0.9c0.1-0.2,0.1-0.4,0.1-0.6
	c0.1-0.4,0.1-0.6,0.1-0.8c0-0.2-0.1-0.3-0.3-0.2l-2.2,4.1c-0.8,1.5-1.6,2.5-2.5,3.2c-0.9,0.7-1.6,1.2-2.3,1.4
	c-0.7,0.3-1.7,0.5-3,0.7c-1.7,0.3-3.3,0.1-4.9-0.4c-1.6-0.6-2.5-1.2-2.8-2c0.3-0.7,0.8-1.5,1.4-2.2c0.6-0.8,1.5-1.5,2.5-2.2
	c1.1-0.7,1.7-1.3,1.8-1.9l0.2-1.6c0.1-0.4,0.1-0.6,0.1-0.8l-0.1-0.7c-0.1-0.6-0.3-0.9-0.6-0.9c-0.2-0.1-0.6-0.2-0.9-0.1l-1.3,0.3
	l-1.3,0.2l-1,0.1l-1,0.1l-2.9-0.2c-1.5-0.1-2.6-0.2-3.3,0l-1.9,0.5c-0.9,0.3-1.7,1.2-2.4,2.7c-0.4,0.8-0.6,1.6-0.7,2.3
	c-0.1,0.7,0,1.6,0.1,2.5c0.2,1.2,0.6,2.4,1.3,3.4c0.7,1,1.5,1.6,2.4,1.9c-0.3,0.6-0.7,1.1-1.3,1.4c-0.5,0.3-1.5,0.6-2.9,0.8
	c-1.8,0.3-3.4-0.1-4.8-1.2c-0.2-0.2-0.4-0.4-0.6-0.6c0.2-2.4,0.3-4.6,0.4-6.3c0.2-3.2,1.8-9.5,5-8.2c-4.5-4.3-8.8,1.2-9.3,5
	c-0.1,1-0.2,2-0.3,3.2c-0.2-0.5-0.5-1.1-0.9-1.9l-1.7-4.3l-3-7.7c-0.9-2.2-1.4-3.3-1.6-3.3c-0.3,0-0.4,0.3-0.5,0.8
	c0,0.5,0,1,0.1,1.6c0.1,0.4,0.3,1.3,0.7,2.7l2.2,6.2l1.6,4.1l1.7,4l1.1,2.4c-0.2,4.6-0.5,9.7-1,14.3c-2,15.8-12,19.9-17.3,14.6
	c3.8,6.1,18,9.5,21-8.2c0.5-3.2,1-8.7,1.4-14.1c0.6,0.6,1.2,1.2,1.9,1.6c1.2,0.7,2.6,1,4.3,0.8l0,0c0.1,0,0.1,0,0.2,0
	c0.1,0,0.2,0,0.3,0l0,0c1.1-0.3,2.1-0.7,3.1-1.3c1.1-0.8,2-1.7,2.7-2.7l1.3-1.9l1.7-2.6l3.8,4.2c1.9,1.2,4.1,1.6,6.7,1.2l0.8-0.1
	l0,0c0.3-0.1,0.7-0.2,1.2-0.3l1.7-0.7c1-0.6,1.8-1.2,2.2-1.7c0.5-0.6,0.9-1.2,1.2-1.9l0.8-2.2c0.7,1.3,1.4,2.4,2.2,3.3
	c0.8,0.8,2.1,1.3,3.9,1.5l0.1,0v0c0.1,0,0.1,0,0.2,0l0.2,0l0,0C259.3,199.3,260.5,198.6,261.5,197.4z M230.6,192.8l-1.1,1.7
	l-0.6,0.8l-0.5,0.6c-0.9-0.3-1.5-0.7-1.8-1c-0.3-0.4-0.6-0.9-0.8-1.5c-0.1-0.1-0.1-0.2-0.2-0.6l0-0.6l0-0.7c0.1-0.4,0.4-0.9,0.7-1.3
	c0.3-0.4,0.9-0.7,1.6-0.8l0.6-0.1l0.9,0l1.5,0.1l1,0.1l0.7,0.1L230.6,192.8z M166.3,336.4l-0.4-0.1l-0.1,0c-0.3,0-0.5,0.2-0.7,0.4
	l-3.8,6.8l-7.5-1.7l-0.6-7.7c0-0.3-0.2-0.6-0.6-0.7l-0.3-0.1c-0.4-0.1-0.7,0.1-0.8,0.5c0,0.1,0,0.3,0,0.3L153,354
	c0.1,1,0.7,1.7,1.7,1.9c0.2,0,0.3,0.1,0.5,0.1c0.8,0,1.4-0.4,1.8-1.1l9.7-17.3c0.1-0.1,0.1-0.2,0.1-0.3c0-0.2,0-0.4-0.1-0.5
	C166.6,336.5,166.5,336.4,166.3,336.4z M155.5,354.1c-0.2,0.3-0.2,0.3-0.5,0.2c-0.1,0-0.3-0.1-0.3-0.5l-0.8-10.3l6.6,1.5
	L155.5,354.1z M253,110c-1.1-1-2-2.2-2.6-3.6l-0.6,1.9c0.5,1.1,1.2,2.1,2.1,2.9c1.7,1.5,3.5,2.2,5.4,2c1.8-0.1,3.5-1,5.2-2.6
	l3.8,3.5c1.2,1.3,8.7,9.7,17.4,24.7l2.8,5.7c1.6,3.7,5,4.9,8.6,3.4l17.2-7.4l-1.2-1.5l-16.4,7.1c-3.2,1.4-5.4,0.6-6.7-2.4l-0.6-1.3
	c-0.2-0.5-0.3-0.8-0.3-0.8l-1.9-3.4l13.8-9.6l-1.6-1.2l-13.1,9.3l-5.1-8.7l11.7-8l-1.5-1.2l-11.2,7.7l-5.9-7.8l10.7-7.3l-1.6-1.2
	l-10.2,7.1l-3.5-4.2l-0.1,0l-4-3.6l10.8-12l-1.8-0.8l-10.7,11.9c-1.4,1.5-2.8,2.4-4.3,2.8C256,111.7,254.4,111.3,253,110z
	 M300.9,113.3c0.7-0.5,0.8-1,0.3-1.7c-0.5-0.7-1-0.8-1.7-0.4c-0.7,0.5-0.8,1.1-0.3,1.7C299.6,113.7,300.2,113.8,300.9,113.3z
	 M223.6,214.6c0.2,0,0.4,0,0.7-0.2l1.9-1.2c1-0.6,1.6-1.1,1.7-1.4c0-0.1,0-0.3-0.2-0.4c-0.1-0.1-0.2-0.3-0.3-0.5
	c-0.1-0.2-0.4-0.6-0.6-1c-0.5-0.9-0.9-1.4-1.1-1.4c-0.2,0-0.3,0-0.4,0l-2.7,1.6c-0.8,0.5-1.3,0.9-1.4,1.2c0,0.2,0,0.3,0.1,0.4l1,1.6
	C222.9,214,223.3,214.5,223.6,214.6z M238.5,253c7.8-1.5,9.7-11.1,8.8-20.8c-0.2-2.3-0.6-4.5-1.2-6.8c-0.6-2.2-1.4-4.4-2.2-6.3
	c-2-4.2-4.1-7.7-6.3-10.4c-2.3-2.7-4.1-4.3-5.4-4.7l-0.1,0.9l-0.1,1.3l0,1.5l0.1,1.5l0.2,2.2l0.7,3.4l1.4,4.2l1.5,4
	c0.8,2.1,1.6,4,2.4,5.7c0.8,1.8,1.4,3.3,2,4.5l0-0.5c0-0.5-0.6-2.1-1.6-4.9c-0.5-1.1-0.9-2.3-1.3-3.6l-1.2-3.6
	c-0.4-1.1-0.7-2.2-0.9-3.3c-0.2-1.1-0.4-2.3-0.5-3.7c2.9,0.7,5.3,2.9,7.2,6.3c1.9,3.5,3,6.9,3.3,10.3c0.3,4.2,0.2,7.6-0.4,10.2
	c-1.9,8.3-10,8.3-12,6.3c2.3-12.6-0.1-22-6.3-29.3c-6.2,10.3-3.1,22.7,2.2,30.8c-1.8,4.9-9.7,28.4-31.7,32.3
	c28.8-0.2,33.9-28.5,34.6-29.6C232.6,251.7,235.3,253.6,238.5,253z M230.1,244.5c-4.2-6.9-4.4-12.4-1.6-17.7
	C230.6,229.4,231.7,238.2,230.1,244.5z M288.5,188.9c0,0.8,0.4,1.3,1.3,1.3c0.8,0,1.2-0.4,1.2-1.2c0-0.8-0.4-1.2-1.2-1.2
	C288.9,187.7,288.5,188.1,288.5,188.9z M297.4,116.9c0.5,0.7,1.1,0.8,1.8,0.3c0.7-0.5,0.8-1.1,0.3-1.8c-0.5-0.7-1.1-0.8-1.7-0.3
	C297.1,115.6,296.9,116.2,297.4,116.9z M196.7,272.4c-2.3,2.9-2.1,4.9-0.2,5.3c1.9,0.4,4.9-0.1,6.9-1.5c0.4-0.3,2.3-2.8,2.3-2.8
	s-3.8,2.9-8.9,2.1c-2.2-0.3,0.1-2.2,0.1-2.2s1.6-1.5,3.7-3.3c1-0.9,2.1-2.4,2.1-2.7c0-2.6-5.7-1.5-5.7-1.5l-1.8,2.2
	c0,0,2.1-0.3,3.9-0.1c0.9,0.1,2.4,0.4,2,0.7C200.7,268.9,197.6,271.3,196.7,272.4z M172.9,247.9
	C173.1,248.5,172.7,247.4,172.9,247.9L172.9,247.9z M291,156l23.9-8.3l-1.1-1.6l-23.4,8.1L291,156z M302.5,192.7l11.2,0.2l-0.6-1.9
	l-10.3-0.2c-3.5-0.1-5.2-1.7-5.1-5l0-1.2l0.2-1.1c-0.4-3.2,1.1-5.1,4.5-5.5l10.8-1.5l-0.9-7c-0.2-1.8-0.9-3.1-2.1-4
	c-1.7-1.3-4.2-1.7-7.4-1.3c-5.9,0.8-8.6,3.4-8,7.7c0.4,2.9,1.8,4.7,4.1,5.4c-2.1,1.4-2.9,3.4-2.6,6.2l0,0l-0.2,0l0,1.4l-0.1,0.3
	l0.1,0l0,0.9C296,190.1,298.6,192.6,302.5,192.7z M296.4,171.9c-0.4-3.3,1.8-5.3,6.6-6c4.9-0.7,7.5,0.7,7.9,4l0.7,4.9l-7.3,1
	C299.5,176.5,296.9,175.2,296.4,171.9z M204,239.3c-2.6,0.3-4.5,0.7-4.5,0.7c-0.7,0.2-0.7,0.3-0.7,0.3c0.1,0,0.5,0.1,0.5,0.1
	c1.3,0.2,4.7,0.8,5.5,0.6c1.1-0.2,2.1-0.8,2.5-1.1c1.1-0.8,3.5-2.8,3.9-3.2c0.4-0.4,0.2-0.5,0.2-0.5c-2.4-2.2-6.5-2.9-6.9-3
	c-0.4-0.1-0.8-0.1-0.8-0.1c-1.8,0.9-3.6,3-3.6,3c-0.1,0.1,0.1,0.1,0.1,0.1c0.2,0,0.3,0,0.3,0c3.8,0.4,5.9,1.8,6.4,2.1
	c0.3,0.2,0.2,0.4,0.2,0.4S205.9,239.1,204,239.3z M296.7,113.5c0.7-0.5,0.8-1.1,0.3-1.8c-0.5-0.7-1.1-0.8-1.7-0.3
	c-0.7,0.5-0.8,1.1-0.4,1.8C295.4,113.9,296,114,296.7,113.5z M317.8,172.1c0.1,0.8,0.6,1.2,1.5,1.1c0.8-0.1,1.1-0.6,1-1.4
	c-0.1-0.8-0.6-1.2-1.3-1.1C318,170.8,317.7,171.3,317.8,172.1z M189.9,33.2c1.7,0,3.2-1.4,3.2-3.1c0-1.7-1.4-3.2-3.1-3.2
	s-3.2,1.4-3.2,3.1C186.8,31.8,188.2,33.2,189.9,33.2z M209.1,40.2l0.3,0.1l0.1,0c0.3,0,0.6-0.2,0.7-0.4l3.6-6.9l7.5,1.5l0.8,7.7
	c0,0.3,0.3,0.6,0.6,0.7l0.3,0.1c0.1,0,0.1,0,0.2,0c0.3,0,0.6-0.2,0.6-0.6c0-0.1,0-0.2,0-0.3l-2-19.8c-0.1-1-0.7-1.7-1.7-1.9
	c-1-0.2-1.8,0.2-2.3,1.1l-9.2,17.5c-0.1,0.1-0.1,0.2-0.1,0.3C208.5,39.8,208.8,40.1,209.1,40.2z M219.5,22.3
	c0.2-0.3,0.3-0.3,0.5-0.3c0.1,0,0.3,0.1,0.3,0.5l1,10.2l-6.6-1.3L219.5,22.3z M230.9,44.8l0.3,0.1c0.1,0,0.1,0,0.2,0
	c0.3,0,0.6-0.2,0.7-0.6l2.5-7.7c0.6,0.2,1.6,0.6,2.6,1c1.5,0.5,2.8,0.7,4,0.7h0c2.7,0,4.5-1.4,5.4-4.2l0.2-0.5
	c1.2-3.7-0.7-6.5-5.6-8.1c-1.2-0.4-2.9-0.9-3.7-1.1l-0.1,0c-0.3,0-0.7,0.2-0.8,0.5l-6.2,18.8C230.3,44.2,230.5,44.7,230.9,44.8z
	 M238,26.3c0.8,0.2,1.7,0.5,2.7,0.8c4.1,1.4,5.4,3.1,4.4,6.1l-0.2,0.5c-0.7,2.2-1.9,3.2-3.9,3.2c-0.9,0-2-0.2-3.4-0.7
	c-0.9-0.3-1.9-0.7-2.6-1L238,26.3z M116.2,57.6c0,0.1,0.1,0.2,0.1,0.3c0.1,0.3,0.3,0.4,0.6,0.4c0.1,0,0.2,0,0.3-0.1l0.3-0.2
	c0.3-0.1,0.4-0.5,0.4-0.8l-1.2-7.7l6.9-3.4l5.3,5.7c0.2,0.2,0.6,0.3,0.9,0.2l0.3-0.1c0.4-0.2,0.5-0.5,0.3-0.9c0-0.1-0.1-0.2-0.2-0.3
	l-13.4-14.6c-0.7-0.7-1.6-0.9-2.5-0.5c-0.9,0.4-1.3,1.3-1.2,2.3L116.2,57.6z M115,37.1c0.1,0,0.1,0,0.2,0c0.1,0,0.2,0.1,0.4,0.2
	l6.9,7.6l-6,3l-1.6-10.2C114.7,37.3,114.7,37.2,115,37.1z M248.6,51.1l0.3,0.1c0.1,0,0.2,0.1,0.3,0.1c0.3,0,0.6-0.2,0.7-0.5l3.5-7.3
	c0.6,0.4,1.6,0.8,2.5,1.3c1.8,0.9,3.4,1.3,4.7,1.3h0c2.2,0,3.9-1.2,5-3.6l0.2-0.4c1.7-3.6,0.2-6.5-4.5-8.7c-0.8-0.4-2-0.9-3.5-1.5
	c-0.4-0.1-0.8,0.1-1,0.4l-8.4,17.9C248.1,50.5,248.2,51,248.6,51.1z M258,33.7c0.7,0.3,1.6,0.7,2.5,1.1c3.9,1.9,5,3.8,3.7,6.6
	l-0.2,0.4c-1.4,3-3.5,3.5-7.5,1.6c-0.8-0.4-1.8-0.9-2.5-1.3L258,33.7z M156.7,42.7L156.7,42.7c0.9,0,2.5-0.2,4.6-0.6
	c3.8-0.7,8-3,6.7-10.4l-0.6-3.4c-1-5.9-4.3-8.5-9.8-7.5c-2.1,0.4-3.7,0.7-4.5,1c-0.4,0.1-0.6,0.5-0.5,0.9l3.3,19.3
	C155.9,42.4,156.3,42.7,156.7,42.7z M154.6,23.1c1-0.2,1.9-0.5,3.2-0.7c4.5-0.8,7,1.2,7.8,6.2l0.6,3.4c0.9,5-0.9,7.8-5.3,8.5
	c-1.6,0.3-2.5,0.4-3.5,0.5l-3.1-17.9L154.6,23.1z M136.4,48.2c0.1,0.3,0.4,0.6,0.7,0.6c0.1,0,0.1,0,0.2,0l0.3-0.1
	c0.4-0.1,0.6-0.5,0.5-1l-2.6-8.2c0.6-0.2,2.4-0.7,3.2-1c0.3-0.1,0.5-0.2,0.7-0.2l0.3-0.1l8.3,6.8c0.1,0.1,0.4,0.2,0.5,0.2l0.5-0.1
	c0.2-0.1,0.4-0.2,0.4-0.3c0.1-0.2,0.1-0.3,0-0.5c-0.1-0.2-0.2-0.3-0.3-0.4l-7.7-6.4c2.9-1.6,3.8-3.9,2.9-7l0-0.1
	c-0.9-2.8-2.5-4.1-5.1-4.1c-1.1,0-2.5,0.3-4.2,0.8c-1.1,0.4-3.2,1.1-4.1,1.4c-0.3,0.2-0.5,0.6-0.4,1L136.4,48.2z M135.5,28.5
	c1.4-0.5,2.6-0.7,3.5-0.7c1.9,0,3,0.9,3.6,2.9l0,0.1c1,3.1-0.2,4.6-4.5,6l-1.5,0.5c-0.6,0.2-1.2,0.4-1.7,0.5l-2.6-8.2
	C133.2,29.2,134.8,28.7,135.5,28.5z M332.5,145.6c0.2,1.3,0.5,2.8,0.8,4.2c1.1,4.4,3.1,6.6,6.1,6.6h0c0.6,0,1.1-0.1,1.7-0.2l0.5-0.1
	c2.2-0.6,3.6-2,3.9-4.1c1.3,1.6,3.1,2.2,5.2,1.7l0.3-0.1c3.5-0.9,4.5-3.8,3.2-9c-0.3-1.2-0.7-2.7-1.2-4.1c-0.1-0.4-0.6-0.6-0.9-0.6
	l-19,4.8C332.7,144.8,332.5,145.1,332.5,145.6z M351.8,141.7c0.1,0.2,0.1,0.5,0.2,0.8c0.2,0.7,0.5,1.6,0.7,2.4
	c1.1,4.2,0.4,6.3-2.1,6.9l-0.3,0.1c-2.5,0.6-4-0.5-4.8-3.6l-1.2-4.7L351.8,141.7z M342.7,144l1.2,4.7c0.8,3.1-0.1,4.9-2.6,5.6
	l-0.5,0.1c-3,0.8-4.8-0.7-5.9-5c-0.3-1.1-0.4-1.9-0.6-2.8l-0.1-0.4L342.7,144z M94.8,62.4c2.1,3.2,4.5,4.7,7.1,4.7
	c1.4,0,2.8-0.5,4.1-1.4c3.9-2.7,4.3-6.8,1-11.7l-1.9-2.9c-2.1-3.2-4.5-4.7-7.1-4.7c-1.4,0-2.8,0.5-4.1,1.4c-3.9,2.7-4.3,6.8-1,11.7
	L94.8,62.4z M94.8,49.2c1.1-0.7,2.1-1.1,3.1-1.1c2,0,3.9,1.4,5.7,4l1.9,2.9c2.7,4.1,2.6,7.2-0.5,9.3c-3.1,2.1-6.1,1.1-8.8-2.9
	l-1.9-2.9C91.5,54.4,91.7,51.3,94.8,49.2z M346,167.9l-7.9,0.9c-0.4,0.1-0.7,0.4-0.7,0.8l0,0.3c0,0.4,0.3,0.6,0.9,0.6l7.9-0.9
	c0.3,0.4,0.9,0.8,1.8,1.1l10.2,3.3c0.1,0,0.3,0.1,0.4,0.1l0.1,0c0.3,0,0.6-0.3,0.5-0.8l0-0.3c0-0.3-0.3-0.5-0.6-0.6l-10.2-3.3
	c-0.9-0.3-0.9-0.4-0.9-0.5c0-0.2,0-0.2,0.8-0.7l9.2-5.5c0.2-0.1,0.4-0.4,0.4-0.7l0-0.3c-0.1-0.5-0.4-0.7-0.7-0.7
	c-0.2,0-0.3,0.1-0.5,0.2l-9.2,5.5C346.7,166.9,346.2,167.4,346,167.9z M320.7,116.9c0.2,0.8,0.9,2.3,1.8,4.3
	c1.6,3.3,3.9,4.9,6.8,4.9c1.5,0,3.2-0.4,5-1.3l3.1-1.5c5.4-2.6,6.9-6.5,4.5-11.6c-0.9-1.9-1.7-3.3-2.2-4.1c-0.2-0.3-0.7-0.4-1-0.3
	l-17.5,8.6C320.7,116.1,320.6,116.5,320.7,116.9z M338.7,109.3l0.1,0.2c0.5,0.9,1,1.7,1.6,2.9c2,4.1,0.7,7.1-3.8,9.3l-3.1,1.5
	c-4.5,2.2-7.6,1.3-9.6-2.8c-0.7-1.4-1.1-2.3-1.5-3.3L338.7,109.3z M312.4,103.8l4,6c0.2,0.2,0.4,0.4,0.6,0.4c0.1,0,0.3,0,0.4-0.1
	l0.2-0.1c0.3-0.2,0.4-0.7,0.1-1l-4-6c-0.7-1.1-0.8-1.7,0.4-2.6l5.7-3.8l5,7.6c0.2,0.4,0.7,0.5,1,0.3l0.2-0.2c0.3-0.2,0.4-0.7,0.1-1
	l-5-7.6l4.9-3.3c1.1-0.7,1.6-0.7,2.5,0.6l4,6c0.2,0.4,0.7,0.5,1,0.3l0.2-0.1c0.2-0.1,0.3-0.3,0.3-0.4c0-0.2,0-0.4-0.1-0.6l-4-6
	c-1.4-2.1-2.9-2.5-4.8-1.2l-12.1,8C311.3,100.2,311,101.7,312.4,103.8z M286.6,75.2c1.5,1.3,3,2,4.7,2h0c2.3,0,4.6-1.3,6.8-3.9
	l2.3-2.6c3.9-4.4,4-8.6,0.5-11.7c-3.5-3.1-7.7-2.5-11.5,1.9l-2.3,2.6C283.2,67.9,283,72,286.6,75.2z M288.3,64.6l2.3-2.6
	c1.9-2.2,3.8-3.3,5.6-3.3c1.2,0,2.4,0.5,3.5,1.5c2.8,2.5,2.6,5.6-0.6,9.3l-2.3,2.6c-3.2,3.7-6.3,4.3-9.1,1.8
	C284.9,71.4,285.1,68.3,288.3,64.6z M301.3,89.8c0.4,0.5,1,0.8,1.5,0.8c0.3,0,0.6-0.1,1-0.2l17.9-8.1c0.1,0,0.2-0.1,0.3-0.2
	c0.3-0.3,0.4-0.7,0.1-1.1l-0.2-0.2c-0.2-0.2-0.6-0.3-0.9-0.1l-17.9,8.1c-0.2,0.1-0.3,0.2-0.5,0c-0.1-0.1-0.2-0.2,0-0.6L313,71.4
	c0.2-0.3,0.2-0.7,0-0.9l-0.2-0.2c-0.3-0.3-0.7-0.4-1.1,0c0,0-0.1,0.1-0.1,0.2l-10.5,16.8C300.5,88.1,300.6,89,301.3,89.8z
	 M265.4,59.6l0.2,0.2c0.3,0.2,0.8,0.1,1-0.3l4.7-7.2c0.6,0.4,2.1,1.4,2.8,1.9c0.3,0.2,0.4,0.3,0.6,0.4l0.3,0.2l0,10.8
	c0,0.2,0.1,0.5,0.3,0.6l0.3,0.2c0.1,0.1,0.3,0.1,0.4,0.1c0.2,0,0.4-0.1,0.5-0.3c0.1-0.1,0.1-0.3,0.1-0.5l0-10
	c3.2,1.3,5.4,0.6,7.2-2.2l0.1-0.1c2.3-3.5,1.3-6.3-3.3-9.3c-1-0.7-2.9-1.8-3.7-2.3c-0.3-0.2-0.8,0-1,0.3l-10.8,16.6
	C265,58.9,265.1,59.4,265.4,59.6z M277,43.7c0.7,0.4,1.9,1.2,2.8,1.8c3.7,2.4,4.5,4.4,2.8,6.9l-0.1,0.1c-0.9,1.4-1.9,2.1-3.1,2.1
	c-1.1,0-2.5-0.6-4.4-1.8c-0.4-0.2-1-0.7-1.6-1.1l-1.2-0.8L277,43.7z M71.1,281.4l0.1,0.1c0.3,0.4,0.6,0.5,1,0.3l0.3-0.2
	c0.3-0.2,0.4-0.6,0.1-1l-0.3-0.5c-0.5-0.9-1.1-2-2-3.2c-2.6-3.6-5.4-4.4-8.4-2.2c-2.3,1.6-2.2,4.2-2,7.6l0.1,2.1
	c0.2,3,0.1,4.4-1.2,5.4c-0.6,0.4-1.1,0.6-1.7,0.6c-1.2,0-2.4-0.9-3.8-2.9c-0.5-0.7-1-1.6-1.5-2.4c-0.3-0.5-0.5-0.9-0.7-1.2
	c-0.2-0.3-0.5-0.4-0.6-0.4c-0.1,0-0.2,0-0.4,0.1l-0.3,0.2c-0.3,0.2-0.4,0.6-0.1,1l0.3,0.6c0.5,0.9,1.2,2,1.9,3
	c1.7,2.4,3.5,3.7,5.2,3.7c0.9,0,1.7-0.3,2.6-0.9c2.1-1.5,2.1-3.9,1.9-6.9l-0.1-2.2c-0.2-3.5-0.3-4.8,1.2-5.9c2.3-1.6,4.1-1,6,1.8
	c0.6,0.8,1,1.6,1.5,2.4C70.6,280.6,70.9,281,71.1,281.4z M84.6,82c0.2,0.2,0.4,0.3,0.6,0.3c0.2,0,0.3-0.1,0.5-0.2
	c1.1-0.8,2.2-1.7,3.3-2.6c3.9-3.5,4.6-6.9,1.9-10l-0.3-0.4c-1.5-1.7-3.4-2.3-5.4-1.6c0.8-1.9,0.5-3.8-0.9-5.4l-0.2-0.2
	c-2.3-2.6-5.4-2.3-9.4,1.3c-1.3,1.2-2.7,2.6-3,2.9c-0.3,0.3-0.3,0.8,0,1.1L84.6,82z M89.3,70.3l0.3,0.3c2.6,3,0.6,5.5-1.7,7.6
	c-0.9,0.8-1.6,1.3-2.4,1.9l-0.2,0.1l-5.8-6.5l3.6-3.2C85.5,68.4,87.6,68.3,89.3,70.3z M74,66c0.5-0.5,1.1-1.1,1.7-1.6
	c1.2-1.1,3-2.6,4.7-2.6c0.9,0,1.7,0.4,2.4,1.2l0.2,0.2c1.7,1.9,1.4,3.8-1,5.9l-3.6,3.2l-5.1-5.8C73.5,66.5,73.7,66.3,74,66z
	 M52.7,246.1l-0.1-0.3c-0.1-0.4-0.6-0.6-1-0.4l-7.6,2.7c-0.2-0.5-0.5-1.6-0.8-2.7c-1.8-5-4.5-6.7-8.5-5.3l-0.4,0.2
	c-3.7,1.3-4.7,4.5-2.9,9.4c0.4,1.2,1.1,2.7,1.4,3.6c0.1,0.3,0.4,0.4,0.7,0.4c0.1,0,0.2,0,0.2,0l18.5-6.7
	C52.6,246.9,52.8,246.5,52.7,246.1z M33.8,251.9c-0.3-0.7-0.6-1.6-1-2.6c-1.5-4.1-0.9-6.2,2-7.3l0.4-0.2c0.7-0.3,1.4-0.4,2-0.4
	c1.9,0,3.3,1.4,4.4,4.6c0.3,0.8,0.6,1.9,0.9,2.7L33.8,251.9z M46,225.4l-1.6-7.1c-0.1-0.4-0.5-0.7-0.9-0.6l-0.2,0
	c-0.2,0-0.3,0.1-0.4,0.3c-0.1,0.2-0.1,0.4-0.1,0.6l1.6,7.1c0.2,0.8,0.2,1.3,0,1.6c-0.2,0.3-0.6,0.5-1.2,0.7l-6.7,1.5l-2-8.9
	c-0.1-0.4-0.5-0.7-0.9-0.6l-0.3,0.1c-0.4,0.1-0.6,0.5-0.5,0.9l2,8.9l-5.7,1.3c-1.3,0.3-1.8,0-2.1-1.5l-1.6-7.1
	c-0.1-0.4-0.4-0.6-0.7-0.6l-0.4,0.1c-0.2,0-0.3,0.2-0.4,0.3c-0.1,0.2-0.1,0.4-0.1,0.6l1.6,7.1c0.4,2,1.4,2.9,3,2.9
	c0.3,0,0.7,0,1.1-0.1l14.1-3.2C45.7,229.1,46.5,227.8,46,225.4z M59.5,259.6c-2.1-4-5.6-4.8-10.1-2.4l-11.3,6.1
	c-0.4,0.2-0.5,0.6-0.3,1l0.1,0.3c0.2,0.3,0.7,0.5,1,0.3l11.3-6.1c3.8-2,6.2-1.5,7.8,1.6c1.6,3.1,0.7,5.5-3,7.5l-11.3,6.1
	c-0.2,0.1-0.3,0.3-0.4,0.5c-0.1,0.2,0,0.4,0.1,0.5l0.1,0.2c0.1,0.2,0.4,0.4,0.6,0.4h0c0.1,0,0.3,0,0.4-0.1l11.3-6.1
	C60.3,267,61.6,263.6,59.5,259.6z M111,332.6l-0.4-0.2c-0.4-0.2-0.8,0-1,0.2l-3.5,3.5c-0.1,0.1-0.2,0.2-0.2,0.3
	c-0.1,0.2-0.1,0.3-0.1,0.4c0,0.1,0.1,0.2,0.3,0.3l0.5,0.3c0.1,0.1,0.3,0.1,0.4,0.1c0.2,0,0.5-0.1,0.7-0.3l3.3-3.6
	c0.1-0.1,0.2-0.2,0.2-0.3c0.1-0.2,0.1-0.3,0.1-0.4C111.2,332.8,111.1,332.7,111,332.6z M94.4,303.4l-0.2-0.2
	c-0.3-0.3-0.8-0.2-1.1,0.1l-6.7,7.1l-7.7-7.4l6.7-7.1c0.3-0.3,0.3-0.8,0-1.1l-0.2-0.2c-0.3-0.3-0.8-0.3-1.1,0.1l-13.5,14.3
	c-0.2,0.2-0.2,0.4-0.2,0.6c0,0.2,0.1,0.4,0.2,0.5l0.2,0.2c0.3,0.3,0.8,0.3,1.1-0.1l5.7-6l7.7,7.4l-5.7,6c-0.3,0.3-0.3,0.8,0,1.1
	l0.2,0.2c0.1,0.1,0.3,0.2,0.5,0.2c0.2,0,0.4-0.1,0.6-0.3l13.5-14.3C94.7,304.2,94.7,303.7,94.4,303.4z M125.8,323.5l-0.3-0.1
	c-0.4-0.2-0.8,0-1,0.4l-8.6,17.8c-0.1,0.2-0.1,0.4-0.1,0.6c0.1,0.2,0.2,0.3,0.4,0.4l0.3,0.1c0.1,0,0.2,0.1,0.3,0.1
	c0.3,0,0.6-0.2,0.7-0.5l8.7-17.8c0.1-0.2,0.1-0.4,0-0.6C126.1,323.7,126,323.6,125.8,323.5z M42.9,210.1l0-0.3
	c0-0.4-0.4-0.6-0.8-0.6h0l-8.5,0.8c-0.1-0.7-0.2-2.5-0.3-3.4l-0.1-0.9c0-0.1,0-0.1,0-0.2l8.4-6.8c0.1-0.1,0.3-0.4,0.3-0.7l0-0.4
	c0-0.4-0.3-0.6-0.7-0.6h0c-0.2,0-0.3,0.1-0.5,0.2l-7.8,6.2c-1-3.3-3-4.6-6.2-4.3l-0.1,0c-4.1,0.4-5.7,2.9-5.1,8.4
	c0.1,1.1,0.4,3.3,0.5,4.4c0.1,0.3,0.4,0.6,0.8,0.6l19.7-1.9C42.6,210.9,42.9,210.5,42.9,210.1z M22.5,212.6L22.5,212.6L22.5,212.6
	L22.5,212.6z M23.3,211c-0.2-1-0.4-2.6-0.4-3.3c-0.4-4.4,0.6-6.2,3.7-6.5l0.1,0c0.3,0,0.5,0,0.7,0c2.6,0,3.7,1.5,4.1,5.7
	c0,0.4,0.1,1,0.1,1.6c0.1,0.6,0.1,1.3,0.1,1.7L23.3,211z M38.8,112.2l17.1,9.8c0.1,0.1,0.3,0.1,0.4,0.1c0.3,0,0.5-0.1,0.6-0.4
	l0.1-0.2c0.2-0.4,0.1-0.8-0.3-1l-7.5-4.3c0.3-0.6,1.2-2.1,1.7-2.9c0.1-0.3,0.2-0.4,0.4-0.7c0-0.1,0.1-0.1,0.1-0.2l10.7-0.7
	c0.2,0,0.5-0.2,0.6-0.4l0.2-0.3c0.2-0.4,0.1-0.7-0.2-0.9c-0.1-0.1-0.3-0.1-0.5-0.1l-10,0.6c1.1-3.2,0.3-5.4-2.6-7.1l-0.1-0.1
	c-1.1-0.7-2.2-1-3.2-1c-2.1,0-4,1.5-5.9,4.9c-0.6,1.1-1.6,3-2.1,3.9C38.4,111.5,38.5,112,38.8,112.2z M42,108.1
	c2.2-3.9,4-4.8,6.7-3.2l0.1,0.1c2.7,1.6,2.9,3.5,0.7,7.5c-0.2,0.4-0.6,1-1,1.7c-0.3,0.5-0.5,0.9-0.7,1.2l-7.4-4.3
	C40.9,110.1,41.8,108.6,42,108.1z M41.8,184c0-1-0.5-1.8-1.5-2.1l-18.5-6.5c-0.1-0.1-0.2-0.1-0.4-0.1c-0.4,0-0.7,0.3-0.7,0.7l0,0.3
	c0,0.3,0.2,0.6,0.5,0.7l18.5,6.5c0.4,0.1,0.4,0.3,0.4,0.4c0,0.2,0,0.3-0.4,0.4l-19,4.9c-0.3,0.1-0.6,0.4-0.6,0.7l0,0.3
	c0,0.2,0.1,0.4,0.2,0.5c0.1,0.1,0.3,0.2,0.5,0.2l0.1,0c0.1,0,0.2,0,0.2,0l19-5C41.1,185.8,41.7,185.1,41.8,184z M20.9,190.8
	L20.9,190.8L20.9,190.8L20.9,190.8z M37,138.2l3.2,1.3c1.7,0.7,3.2,1,4.6,1h0c3.1,0,5.3-1.6,6.5-4.6c1.7-4.5-0.3-8.1-5.8-10.2
	l-3.2-1.3c-5.4-2.1-9.4-0.8-11.1,3.7C29.5,132.5,31.5,136.1,37,138.2z M32.8,128.6c0.9-2.3,2.5-3.5,4.9-3.5c1.2,0,2.5,0.3,4,0.9
	l3.2,1.3c4.6,1.8,6.2,4.5,4.8,8c-1.4,3.5-4.4,4.4-8.9,2.6l-3.2-1.3C33,134.9,31.4,132.2,32.8,128.6z M50,93.8l10.4,2.3
	c1,0.2,1.6,0.2,2.1,0l6.4,4.8c0.1,0.1,0.3,0.2,0.5,0.2c0.2,0,0.4-0.1,0.6-0.3l0.2-0.2c0.2-0.3,0.1-0.8-0.2-1l-6.4-4.8
	c0.1-0.5-0.1-1.2-0.6-2l-5.2-9.4c-0.1-0.2-0.2-0.3-0.3-0.4c-0.2-0.2-0.6-0.3-0.9,0.2l-0.2,0.2c-0.2,0.2-0.1,0.6,0,0.8l5.2,9.4
	c0.4,0.8,0.4,0.9,0.3,1c-0.1,0.2-0.2,0.2-1,0l-10.4-2.3c-0.2-0.1-0.6,0-0.8,0.3l-0.2,0.2c-0.3,0.4-0.2,0.7,0.1,1
	C49.6,93.7,49.8,93.8,50,93.8z M27.8,156.8c0.4,0.1,0.8,0.1,1.1,0.1c2,0,3.6-1.4,5.4-3.2l1.6-1.5c2.5-2.4,3.4-3.4,5.3-2.9
	c1.8,0.4,3.7,1.5,2.6,5.8c-0.2,1-0.5,1.8-0.8,2.7c-0.2,0.4-0.3,0.9-0.5,1.3l0.2,0.1l-0.3,0.1c-0.1,0.3,0,0.5,0.1,0.7
	c0.1,0.1,0.2,0.2,0.4,0.3l0.4,0.1c0.1,0,0.1,0,0.2,0c0.3,0,0.6-0.2,0.7-0.6l0.2-0.5c0.4-1,0.8-2.1,1.2-3.7c1.1-4.3-0.2-7-3.8-7.9
	c-2.6-0.7-4.6,1-7.1,3.5l-1.5,1.5c-2,2-3.3,3-4.8,2.6c-2.1-0.5-2.7-2.2-1.8-5.6c0.2-0.8,0.6-1.9,0.9-2.7c0.2-0.5,0.3-1,0.4-1.2
	c0.2-0.7-0.3-0.9-0.4-0.9l-0.3-0.1c-0.4-0.1-0.7,0.1-0.8,0.5l-0.2,0.5c-0.4,1-0.8,2.2-1.1,3.5C23.7,153.5,24.7,156.1,27.8,156.8z
	 M22.5,166.5l19.5,2.8l0.1,0c0.4,0,0.7-0.3,0.8-0.6l0-0.3c0-0.2,0-0.4-0.1-0.5c-0.1-0.2-0.3-0.3-0.5-0.3l-19.4-2.8l-0.1,0
	c-0.4,0-0.7,0.3-0.8,0.6l0,0.3C21.8,166.1,22.1,166.5,22.5,166.5z M112.4,316.4l-0.3-0.2c-0.2-0.2-0.6-0.1-0.9,0l-6.1,4.8l-6.3-4.4
	l2.4-7.4c0.1-0.3,0-0.7-0.2-0.8l-0.3-0.2c-0.1-0.1-0.3-0.1-0.4-0.1c-0.1,0-0.4,0.1-0.5,0.3c-0.1,0.1-0.1,0.2-0.2,0.3l-6.2,18.8
	c-0.3,0.9,0,1.8,0.8,2.4c0.4,0.3,0.8,0.4,1.2,0.4c0.5,0,0.9-0.2,1.3-0.5l15.6-12.2c0.1-0.1,0.2-0.2,0.2-0.2c0.1-0.2,0.2-0.4,0.1-0.5
	C112.7,316.7,112.6,316.5,112.4,316.4z M95.7,328.5c-0.2,0.2-0.3,0.2-0.5,0c-0.1-0.1-0.2-0.2-0.1-0.5l3.3-9.8l5.5,3.9L95.7,328.5z
	 M176.5,320.4l1.9-0.4l2.3-24.8l-1.8-0.2L176.5,320.4z M188.1,271.3l1-1.6c0.5-0.9,0.9-1.8,1.1-2.6c0.5-1.2,0.9-2.3,1.2-3.4l0.1-0.5
	c0.4-1.5,0.7-2.7,0.7-3.5c0.1-0.3,0.4-0.4,0.9-0.3l1.5,0.3l0,0c1.5,0.4,2.7,0.5,3.5,0.2c0.4-0.1,0.9-0.5,1.6-1
	c0.7-0.5,1.4-1.1,2-1.7c0.2,0,0.5,0.1,0.9,0.4c0.4,0.3,0.7,0.5,0.9,0.6l0.6,0.2l1.2,0.2l1.9-0.2c0.9-0.2,1.8-0.9,2.8-1.9
	c1-1,1.6-1.5,2-1.5c2,0.5,3.6-0.1,5.1-2c1.4-1.9,2.5-4.2,3.3-6.9c0.2-0.6,0.3-1.2,0.4-1.7c0.1-0.5,0.1-1,0.2-1.4
	c0.1-0.9,0.1-1.4-0.1-1.5c-0.4,0-0.7,0.1-0.9,0.3c-0.2,0.2-0.4,0.6-0.6,1.3l-0.1,0.4l-0.2,0.6l-0.1,0.7l-0.2,0.7
	c-0.3,1-0.7,1.8-1.1,2.4c-0.5,0.6-1.1,1-1.8,1.2c-0.7,0.2-1.2,0.2-1.6,0.2c-0.8-0.2-1-1-0.6-2.3l0.3-1.9c-0.6-0.1-1,0-1.1,0.2
	c-0.1,0.2-0.5,0.9-1,2.2c-0.5,1.3-1.1,2.3-1.6,3c-0.5,0.7-1.2,1.2-2.1,1.3c-1,0.2-1.7,0.3-2.1,0.2c-0.8-0.2-1-1.4-0.6-3.6l-0.4-1.2
	c-0.4,0-0.9,0.7-1.2,2c-0.2,0.7-0.5,1.3-0.9,1.7c-0.4,0.4-0.8,0.8-1.3,1.1c-0.5,0.3-0.9,0.5-1.3,0.6c-0.4,0.1-0.8,0.2-1.4,0.2
	c-0.4,0-1.1-0.1-2.1-0.4l-0.1,0l0,0l-2.9-0.9c-0.6-0.2-1-0.6-1.3-1.1c-0.3-0.6-0.5-2.9-0.6-6.7l-0.2-5.8l-0.1-5.4
	c-0.1-3.5-0.3-5.6-0.6-6.3c-0.3-0.7-0.6-1.1-1-1.2c-0.2,0.2-0.4,0.6-0.6,1.1c-0.4,1.3-0.6,4-0.7,8.1c-0.1,4.1-0.1,8.1-0.1,11.9
	l0.2,5.7c0.1,1.7,0.4,12.6-1.3,16.5c-3.2,7.4-10.8,1.6-10.8,1.6c1.3-1.2,2.3-2.2,2.9-3.1c6.2-10.3,2.5-21.8,2.5-21.8
	c-0.2-1.1-0.5-1.8-0.9-1.9c-0.7,0.5-2.1,2.5-3.9,6.1c-1.9,3.5-3.3,6.8-4.1,9.9c-0.1,0.2-0.1,0.5-0.2,0.9c-0.1,0.4-0.2,0.9-0.3,1.7
	l-0.1,2.3l0.2,1.9l0.2,2c-0.5,0.6-17.6,5-35.6-3.7c23,16.3,35.4,8.7,35.9,8.5c0.8,1.3,1.6,2.2,2.3,2.7c0.4,0.4,0.8,0.6,1.2,0.8
	c0.3,0.2,0.8,0.4,1.3,0.5c2,0.6,3.9,0.1,5.8-1.4C185.8,274.3,187.2,272.8,188.1,271.3z M175.7,266.5c-0.4-0.7-0.9-2-0.9-3.4
	c0-1.4,0.3-2.9,0.8-4.6c0.5-1.8,1.2-3.5,2.1-5.2c1-1.6,1.8-2.5,2.3-2.6l0.2,0.8C180.3,251.5,181.7,260.5,175.7,266.5z M162.8,292.2
	c-2.8-0.8-5-0.2-6.5,1.7c-0.4-2.4-2-4.1-4.7-4.8l-0.7-0.6l0,0l-2.2-1c-2.4-1.1-4.5-1.1-6.3,0.2c-0.2-2.2-1.4-3.9-3.7-5l-2.3-1.2l0,0
	l-1.5-1c-2.2-1.5-4.3-1.7-6.3-0.7c0.1-2.2-0.8-4.1-2.9-5.5l-0.4-0.3l-15.6-14.2l-3.6,3.8c-2.8,3-4.5,5.4-5,7.4
	c-0.7,2.8,0.2,5.4,2.9,8l3.9,3.7l2.9,0.4l-5.3-5.1c-2.3-2.2-3.1-4.5-2.4-6.8c0.5-1.6,2-3.7,4.4-6.3l2.4-2.6l3.3,3.1
	c-1.4,0.1-3,1-4.6,2.7c-3.1,3.3-3.4,6.1-0.8,8.6c2.6,2.5,5.4,2.1,8.5-1.2c1.6-1.7,2.4-3.3,2.4-4.7l5.6,4.6l0,0l0.1,0.2
	c2.7,1.8,3.1,4.1,1.2,6.9l-6.2,9.3l1.9,0.5l5.7-8.6c1.9-2.9,4.2-3.5,6.9-1.7l0.8,0.6l0,0l0.2,0.1l0.5,0.3l0,0l2.1,1.2
	c2.9,1.4,3.6,3.6,2.2,6.6l-4.8,10.1l1.9,0.3l4.4-9.4c1.5-3.2,3.7-4,6.6-2.7l2.2,1.1l0,0l0.6,0.3c3.1,0.9,4.2,3.1,3.3,6.5l-2.9,10.6
	l6.8,1.9c1.7,0.5,3.2,0.4,4.5-0.4c1.9-1.1,3.2-3.2,4.1-6.3C168.3,296.9,167,293.3,162.8,292.2z M115.2,274.4
	c-2.3,2.5-4.4,2.9-6.1,1.2c-1.7-1.7-1.4-3.7,0.9-6.2c2.3-2.5,4.3-2.9,6.1-1.2C117.8,269.8,117.5,271.9,115.2,274.4z M165,302.2
	c-1.3,4.7-3.5,6.7-6.7,5.8l-4.8-1.3l1.9-7.1c1.3-4.7,3.5-6.7,6.7-5.8C165.3,294.6,166.3,297.4,165,302.2z M157.8,314.6
	c-0.8-0.2-1.3,0.1-1.5,0.9c-0.2,0.8,0.1,1.3,0.9,1.5c0.8,0.2,1.3-0.1,1.5-0.8C158.9,315.3,158.6,314.8,157.8,314.6z M153.6,313.4
	c-0.8-0.2-1.3,0.1-1.6,0.9c-0.2,0.8,0.1,1.3,0.9,1.5c0.8,0.2,1.3-0.1,1.5-0.8C154.6,314.1,154.4,313.6,153.6,313.4z M204.5,317.7
	c-0.8,0.1-1.2,0.6-1.1,1.4c0.1,0.8,0.5,1.1,1.3,1c0.8-0.1,1.2-0.5,1.1-1.3C205.8,318,205.3,317.6,204.5,317.7z M239.6,286
	c-1.8-0.9-3.7-0.9-5.7-0.1l-3.7,1.7c-0.5-1.6-0.6-3-0.3-4.3c0.4-1.4,1.3-2.5,2.8-3.2c1.5-0.7,2.8-1,4.1-1l-1.4-1.3
	c-1.2,0-2.4,0.3-3.4,0.8c-2,0.9-3.2,2.2-3.8,4c-0.6,1.7-0.5,3.5,0.2,5.6l-4.1,1.7l0,0l-1.9,0.5c-2.5,0.7-4.1,2.1-4.7,4.3
	c-1.6-1.6-3.6-2.1-6-1.4l-0.1,0l-7.7,1.2c-1.2,0.1-2.4,0.5-3.3,1.1c-1.5-0.4-2.6-0.5-3.5-0.4l-3.8,0.3l-2.5,0
	c-4-0.1-6.5,2.6-6.6,6.5l-0.3,18.8l1.9-0.5l0.3-18c0.1-3.5,1.7-5.2,4.9-5.2l1.3,0l0,0c0.1,0,0.1,0,0.2,0l0.9,0l0-0.1
	c3.1-0.4,4.9-0.2,5.3,0.1c-1.3,0.9-2.2,2.2-2.8,3.8c-0.6,1.5-0.8,3.1-0.6,4.8c0.2,2.1,1,3.8,2.2,5c1.5,1.4,3.4,2,5.8,1.8
	c2.2-0.2,3.8-0.9,5-2.2c1-1.1,1.5-2.6,1.5-4.4c-0.2-4.1-2.4-7.2-6.9-9.3c0.4-0.4,3.7-1.3,8.9-1.8l0,0l0.1,0l0,0.1
	c3.1-0.8,5.1,0.4,6,3.6l2.8,10.8l1.6-1l-2.6-10c-0.9-3.4,0.2-5.5,3.3-6.3l1.3-0.3l0,0.1l4.7-1.9c0.7,1.7,1.5,3.7,2.5,5.9
	c2.4,5.3,5.5,7,9.3,5.3c2.1-1,3.3-2.5,3.6-4.5c0.3-1.8-0.1-3.9-1.1-6.2C242.5,288.3,241.3,286.8,239.6,286z M206.1,300.9
	c1.2,1.4,1.9,3,2.1,4.6c0.4,3.2-1.6,5.5-4.7,5.7c-1.9,0.1-3.5-0.4-4.7-1.6c-1-1-1.6-2.4-1.8-4.1c-0.2-1.6,0.1-3.2,0.7-4.7
	c0.7-1.5,1.7-2.6,3-3.2C203,298.1,204.7,299.2,206.1,300.9z M240.3,299.7c-2.8,1.3-5.1-0.2-7.1-4.6c-0.6-1.4-1.5-3.4-2.6-5.9
	l3.9-1.8c1.5-0.7,3-0.7,4.3,0.1c1.2,0.7,2.2,1.9,3,3.6C243.8,295.5,243.3,298.3,240.3,299.7z M128.9,305.5l5.6,2.7l-0.5,1.1
	c-0.9,1.9-2.1,2.5-3.7,1.8c-0.7-0.3-1.2-0.9-1.4-1.7l-1.4,0.7c0.4,1.1,1,1.8,2,2.3c2.5,1.2,4.9,0.1,6.1-2.5l0.4-1l1.7,0.8l1.8-0.8
	l-9.9-4.7L128.9,305.5z M225.2,313.6c-0.8,0.2-1.1,0.7-0.8,1.6c0.2,0.8,0.7,1.1,1.5,0.9c0.8-0.2,1.1-0.7,0.9-1.5
	C226.5,313.7,226,313.4,225.2,313.6z M220.9,314.7c-0.8,0.2-1.1,0.7-0.8,1.6c0.2,0.8,0.7,1.1,1.5,0.9c0.8-0.2,1.1-0.7,0.9-1.5
	C222.2,314.8,221.7,314.5,220.9,314.7z M61.1,210.9c-0.8,0.2-1.2,0.7-1,1.5c0.1,0.8,0.6,1.1,1.5,1c0.8-0.2,1.2-0.6,1-1.4
	C62.4,211.1,61.9,210.7,61.1,210.9z M94.4,219.6c-0.7,0.3-1,0.8-0.7,1.6c0.3,0.8,0.8,1,1.5,0.8c0.8-0.3,1.1-0.8,0.8-1.6
	C95.7,219.5,95.2,219.3,94.4,219.6z M117.1,81c0.7-0.4,0.8-1,0.3-1.8c-0.4-0.7-1-0.8-1.7-0.4c-0.7,0.4-0.8,1-0.4,1.7
	C115.9,81.3,116.4,81.5,117.1,81z M88.2,128.4c-1.5-2.2-1.6-4.3-0.3-6.2c1.8-2.7,4.1-3.1,7-1.1l6.7,4.5l-5.8,8.7l0.8,1.8l10.5-15.8
	l0,0l0.4-0.6c1.6-1.5,2.3-3.2,2.2-5c2.8,1.7,5.5,1.3,8.1-1.1c2.5-2.4,3-5.6,1.2-8.5c2.1,0.3,4.2-0.1,5.9-1.7l0.3-0.2l1.6-1
	c2.2-1.4,3.3-3.3,3.1-5.5c2,1,4,0.8,6.1-0.5l0.8-0.5l20.8-9.3c1-0.3,1.9-0.7,2.7-1.3c1.1-0.9,1.7-1.9,1.8-3c1.6,1.8,3.7,2.4,6.1,1.8
	c4.3-1,5.8-4.3,4.5-9.8c-1.3-5.5-4.1-7.8-8.4-6.7c-4.3,1-5.8,4.3-4.5,9.8l0.2,0.8c0.1,0.3,0.2,0.6,0.2,0.8c0.8,3.4-0.6,5.6-3.8,6.4
	l-0.2,0.1l-13.9,5.8l-3.8-8.3c-1.3-2.8-0.6-5.6,2-6.8c1.4-0.6,2.6-0.7,3.6-0.1l0.7-1.8c-1.5-0.6-3-0.5-4.5,0.2
	c-2,0.9-3.3,2.3-3.8,4.1c-0.5,1.8-0.3,3.7,0.6,5.8l3.5,7.8l-4.8,2.6l0,0l-0.5,0.2c-2.7,1.8-5,1.2-6.8-1.6l-6-9.4l-1.2,1.5l5.6,8.7
	c1.9,2.9,1.5,5.3-1.2,7l0,0l0-0.1l-2.3,1.3c-2.3,2.3-4.8,2.2-7.2-0.3l0,0c-3.2-3-7-3.3-10-0.4c-1.7,1.6-2.4,3.5-2.2,5.4
	c0.2,1.8,1.1,3.5,2.8,5.4c1.8,2.3,1.6,4.5-0.5,6.5l-0.4,0.8l0,0l-3.1,4.7l-6.9-4.7c-3.4-2.3-6.9-1.5-9.2,1.9
	c-1.1,1.7-1.4,3.5-0.9,5.4L88.2,128.4z M164.7,68.8c3.1-0.7,5.2,1.1,6.2,5.6c1,4.4,0,7-3.1,7.7c-3.1,0.8-5.2-1.1-6.3-5.5
	C160.5,72.1,161.5,69.5,164.7,68.8z M107.3,102.6c2.5-2.4,5.3-2,8.4,1.3c3.1,3.2,3.4,6.1,0.9,8.4c-2.5,2.4-5.2,1.9-8.3-1.3
	C105.1,107.7,104.8,104.9,107.3,102.6z M169.8,117.5c3.4-8.8,3.2-17-1.5-16.2c-4,0.7-9.1,8.2-10.5,13.9c3.7-7.5,7.6-9.4,9.6-8.8
	c2.4,0.7,2.1,7,0,14.7c-0.2,0.5-0.4,1-0.6,1.5c-0.4,1.2-0.7,2.1-0.8,2.6l-0.5,2.2c-0.3,1.4-0.4,2.5-0.3,3.2
	c-0.6,0.1-1.1,0.2-1.6,0.3c-0.5,0.1-3.8,0.6-5.8-2.4c-0.6-0.8-1.1-1.5-1.7-2.3c-0.3-0.4-1.3-1.9-3.1-4.7c-0.5-0.8-0.9-1.3-1.2-1.5
	c-0.5-0.3-0.9-0.5-1.2-0.7c-0.4-0.2-0.8-0.3-1.2-0.4c-1-0.2-2.1-0.1-3.3,0.4c-1.4,0.5-3,1.6-4.8,3.2c-1.4,1.2-2.5,2.7-3.3,4.4
	c-0.6,1.3-1.1,2.9-1.5,4.6c-0.6,3.1-0.4,5.5,0.8,7.1c1.1,1.6,2.6,2.9,4.4,3.7c1.8,0.9,2.8,1.6,2.9,2.1c0.1,0.6,0.1,1.2-0.1,1.8
	c-0.4,1.9-5.1,6.5-9.6,5.6c-16.3-3.2-10.7-26.8,5.8-38.6c-20.3,12.3-20.9,27.5-16.6,36.5c1.8,3.9,5.5,6.5,10,7.1
	c2,0.3,4.3-0.3,6.9-2.1c2.6-1.8,4.3-4.6,5-8.3c0.8-4.1,0.7-6.6-0.3-7.5c-1-1-2.7-2-4.9-3c-2.3-1-3.2-2.4-2.8-4.3
	c0.2-0.8,0.6-1.7,1.4-2.7c0.8-1,1.7-1.9,2.6-2.5c2.1-1.4,4.2-1.9,6.4-1.5c0.5,0.1,1.1,0.9,1.9,2.3c1.3,2.4,2.2,3.8,2.4,4.2
	c1.1,1.5,2.1,2.6,3,3.3c4.1,3,8.1,1.2,8.1,1.2l1.2-0.4l0.3,1.1l0.3,0.8c0.2,0.4,0.6,1.1,1.4,2.2l0.3-0.5l-0.1-0.7l-0.3-1.1
	c-0.2-0.5-0.3-0.9-0.3-1.3l0-1.1c1.9-0.9,3.7-2.3,5.4-4.2c1.7-1.9,3-3.9,4.1-6.1c0.5-1.1,1-2.1,1.3-3.1c0.3-1,0.6-1.9,0.8-2.8
	c0.2-0.9,0.2-1.7,0.1-2.5c-0.1-0.8-0.3-1.4-0.5-1.7c-0.2-0.4-0.6-0.7-1.3-0.9c-0.4-0.1-0.7-0.1-1.2,0c-0.4,0.1-0.9,0.2-1.4,0.5
	c-1.1,0.5-2.2,1.3-3.3,2.2C170.5,116.8,170.2,117.2,169.8,117.5z M173.2,120.4c0.3-0.1,0.9-0.1,1.6,0c0.3,0.1,0.5,0.5,0.3,1.2
	c-0.1,0.6-0.4,1.3-0.8,2.1c-0.5,0.8-1.2,1.8-2.1,2.9c-1,1.2-2,2-2.9,2.4c-1,0.5-1.7,0.9-2.1,1l-0.1-0.8l0.1-0.6l0.1-0.7
	c0-0.1,0.1-0.3,0.1-0.6c0.1-0.2,0.2-0.6,0.4-1.1l0.8-1.7c0.7-1.2,1.5-2.1,2.5-2.9C172,120.9,172.8,120.5,173.2,120.4z M71.8,179
	c0.8,0.1,1.3-0.3,1.4-1.1c0.1-0.8-0.3-1.3-1.1-1.4c-0.8-0.1-1.3,0.2-1.4,1.1C70.6,178.4,71,178.9,71.8,179z M247.6,271.4
	c4.8-3.5,8.6-2.4,12.7,3.4l1.2-1.6c-2.5-3-4.8-4.8-6.7-5.4c-2.5-0.8-5.2-0.2-8.2,2c-5.1,3.7-6.4,7.6-3.7,11.6l0,0l4.8,6.8l7.8-5.7
	l1.7,2.5c2,2.9,1.7,5.2-0.9,7.1c-1.8,1.3-3.4,1.5-5,0.5l0.7,1.9c2,0.5,3.8,0.1,5.5-1.2c3.3-2.4,3.8-5.8,1.4-9.1l-2.9-4.1l-7.9,5.7
	l-3.7-5.2l0,0C242.3,277.6,243.3,274.5,247.6,271.4z M60.7,208.9c0.9-0.2,1.2-0.7,1-1.5c-0.2-0.8-0.7-1.2-1.5-1
	c-0.8,0.2-1.2,0.7-1,1.5C59.4,208.7,59.9,209.1,60.7,208.9z M83.2,168.9L71,167.4l0.4,1.9l13.3,1.6c2.4,0.3,3.9,1.3,4.5,2.9
	c0.5,1.1,0.5,3,0.2,5.5c-0.7,6.1-4.1,8.2-11.1,7.4l-2.7-0.3l0.4,1.9c1.4,0.2,2.3,0.3,2.9,0.3c3.9,0.2,6.7-0.3,8.6-1.5
	c2.2-1.3,3.4-3.8,3.9-7.4c0.8-6.6-1.1-9.8-6.4-10.5l1.4-7.3l-0.1,0.1c0.4-1.1,0.5-2.2,0.5-3.3c-0.1-1.4-0.6-2.4-1.5-3.1
	c2.3-0.4,4-1.8,4.8-4.2c1.5-4.2-0.4-7.2-5.7-9.1c-5.3-1.9-8.7-0.8-10.2,3.4c-1.5,4.2,0.4,7.2,5.7,9.1l0.7,0.3
	c0.3,0.1,0.6,0.2,0.8,0.2c3.3,1.2,4.3,3.3,3.3,6.4l-0.6,1.6l0.1,0l-0.1,0.1L83.2,168.9z M80.4,152.9c-4.3-1.5-5.9-3.8-4.8-6.9
	c1.1-3,3.7-3.8,8-2.2c4.2,1.5,5.8,3.8,4.8,6.8C87.3,153.7,84.7,154.4,80.4,152.9z M106.1,247.8c0.9-2.4,0.5-5.2-1.3-8.3
	c-3.3-5.7-6.7-7.2-11.3-4.5l-2.1-5.1l-0.5-1.6c-0.9-2.5-2.4-4-4.6-4.4c1.4-1.7,1.8-3.7,1-6.1l-0.6-1.8l-2-10.9
	c-0.4-2.2-1.1-3.8-2-4.6c-0.9-0.8-2.5-1-4.8-0.6l-6.2,1.2c-1.6,0.3-2.8,1-3.7,2.3c-1,1.4-1.3,3.2-0.9,5.4c0.8,4.5,3.6,6.5,7,5.9
	c2-0.4,3.4-1,4.1-1.8c0.8-1,1-2.6,0.6-4.8l-1.1-6.2l1.2-0.2c2.7-0.5,3.7,0.6,4.4,4.2l2,10.6l0,0l0,0l0.2,1l0.2,0l0.2,0.6
	c1.1,3.1,0,5.2-3.2,6.3l-10.5,3.6l1.2,1.6l9.7-3.4c3.3-1.1,5.4-0.2,6.5,2.9l0.3,0.8l0,0l0.1,0.3l0.2,0.6l0,0l2.1,5.1l-20.4,11.9
	L73,249l21.4-12.5c2.1-1.2,3.9-1.4,5.4-0.4c1,0.6,2.2,2,3.4,4.2c3,5.3,1.6,9-4.6,12.6l1.5,1.2C103.3,252,105.3,249.9,106.1,247.8z
	 M76.8,211.2c-0.4,0.7-1.5,1.2-3.2,1.5c-2.6,0.5-4.5-1.2-5.1-4.3c-0.5-2.9,0.9-5.1,3.3-5.5l4.1-0.8l1,5.4
	C77.3,209.3,77.3,210.6,76.8,211.2z M120.9,78.6c0.7-0.4,0.8-1,0.3-1.8c-0.4-0.7-1-0.8-1.7-0.4c-0.7,0.4-0.8,1-0.4,1.7
	C119.6,78.9,120.2,79,120.9,78.6z M335.7,269.8l-14.6-8.9c-0.4-0.2-0.8-0.1-1,0.2l-0.1,0.2c-0.2,0.4-0.1,0.8,0.3,1l8.1,4.9l-4.7,7.8
	c-0.2,0.4-0.1,0.8,0.2,1l0.2,0.2c0.1,0.1,0.2,0.1,0.3,0.1c0.3,0,0.5-0.1,0.7-0.4l4.7-7.8l5,3.1c1.3,0.8,1.2,1.4,0.5,2.5l-3.7,6.2
	c-0.2,0.4-0.2,0.8,0.2,1l0.2,0.1c0.1,0.1,0.2,0.1,0.4,0.1c0.3,0,0.5-0.1,0.7-0.4l3.7-6.2C338,272.6,337.7,271,335.7,269.8z
	 M266.2,318.5c0-0.1-0.1-0.2-0.1-0.3c-0.2-0.4-0.6-0.5-0.9-0.3l-0.3,0.2c-0.3,0.2-0.4,0.5-0.4,0.8l1.3,7.6l-6.8,3.5l-5.3-5.6
	c-0.2-0.2-0.6-0.3-0.9-0.2l-0.3,0.1c-0.2,0.1-0.3,0.3-0.4,0.4c-0.1,0.2,0,0.3,0.1,0.5c0.1,0.1,0.2,0.2,0.2,0.3l13.6,14.4
	c0.4,0.5,1,0.7,1.5,0.7c0.3,0,0.7-0.1,1-0.2c0.9-0.4,1.3-1.3,1.1-2.3L266.2,318.5z M267.7,338.9c-0.2,0.1-0.3,0-0.5-0.2l-7-7.5l6-3
	l1.7,10.2C268,338.7,267.9,338.8,267.7,338.9z M312.7,275c-0.1-0.1-0.2-0.2-0.2-0.2c-0.3-0.2-0.7-0.2-1,0.1l-0.2,0.3
	c-0.2,0.3-0.2,0.6,0,0.9l4.4,6.3l-4.7,6.1l-7.2-2.8c-0.3-0.1-0.7,0-0.9,0.2l-0.2,0.3c-0.2,0.2-0.2,0.4-0.2,0.5
	c0,0.2,0.1,0.3,0.3,0.4c0.1,0.1,0.3,0.2,0.3,0.2l18.4,7.2c0.3,0.1,0.6,0.2,0.8,0.2c0.6,0,1.2-0.3,1.6-0.8c0.6-0.8,0.6-1.8,0-2.6
	L312.7,275z M322.8,292.8c-0.1,0.2-0.3,0.2-0.5,0.1l-9.5-3.7l4.1-5.3l5.9,8.4C322.9,292.5,322.9,292.6,322.8,292.8z M283.7,306.7
	c-0.7-0.7-1.5-0.8-2.2-0.3c-0.8,0.6-0.7,1.4-0.5,2.1l3.5,10.8l-9-6.8c-0.6-0.4-1.4-0.8-2.1-0.2c-0.5,0.3-1,1-0.4,2.2l8.2,17.5
	l0.1,0.2c0.2,0.2,0.4,0.3,0.6,0.3c0.1,0,0.3,0,0.4-0.1l0.2-0.2c0.3-0.2,0.4-0.6,0.2-1l-8.1-17.2l9,6.7c0.7,0.5,1.4,0.6,2,0.2
	c0.3-0.2,0.8-0.8,0.5-1.9l-3.4-10.7l13.6,13.3c0.3,0.3,0.7,0.3,1,0.1l0.2-0.2c0.3-0.2,0.4-0.7,0.1-1.1L283.7,306.7z M314.7,303.5
	c-0.3-0.3-0.7-0.3-1,0.1l-4.1,4l-13.1-13.5c-0.3-0.3-0.8-0.3-1.1-0.1l-0.2,0.2c-0.3,0.3-0.3,0.8,0,1.1l13.1,13.5l-4.1,4
	c-0.2,0.2-0.3,0.4-0.3,0.6c0,0.2,0.1,0.3,0.2,0.4l0.2,0.2c0.1,0.1,0.3,0.2,0.5,0.2c0.2,0,0.4-0.1,0.6-0.2l9.4-9.3
	c0.2-0.2,0.3-0.4,0.3-0.6c0-0.2-0.1-0.4-0.2-0.5L314.7,303.5z M348.5,240.4l-13.6-5.1c-2.1-0.8-3.6-0.1-4.4,2.2l-2.5,6.8
	c-0.1,0.4,0,0.8,0.4,1l0.2,0.1c0.4,0.2,0.8-0.1,0.9-0.5l2.5-6.8c0.5-1.5,1-1.6,2.3-1.2l6.5,2.4l-3.2,8.6c-0.1,0.4,0,0.8,0.4,1
	l0.3,0.1c0.4,0.1,0.8-0.1,0.9-0.5l3.2-8.6l5.5,2.1c1.4,0.5,1.4,1.2,1,2.4l-2.5,6.8c-0.1,0.2-0.1,0.4,0,0.6c0.1,0.2,0.2,0.3,0.4,0.3
	l0.2,0.1c0.1,0,0.2,0,0.3,0c0.3,0,0.6-0.2,0.7-0.5l2.5-6.8C351.2,242.7,350.6,241.2,348.5,240.4z M190,10C90.7,10,10,90.7,10,190
	s80.7,180,180,180s180-80.7,180-180S289.3,10,190,10z M190,368.5c-98.4,0-178.5-80.1-178.5-178.5S91.6,11.5,190,11.5
	S368.5,91.6,368.5,190S288.4,368.5,190,368.5z M359.7,193.7c-0.1-0.1-0.3-0.2-0.5-0.2l-0.3,0c-0.4,0-0.7,0.3-0.7,0.7l-0.5,5.8
	l-18.8-1.5c-0.4,0-0.7,0.3-0.8,0.7l0,0.3c0,0.2,0,0.4,0.2,0.5c0.1,0.2,0.3,0.3,0.6,0.3l18.7,1.5l-0.5,5.7c0,0.5,0.2,0.8,0.6,0.8
	l0.3,0c0.4,0,0.7-0.3,0.7-0.7l1-13.2C359.9,194.1,359.9,193.9,359.7,193.7z M358.1,208L358.1,208L358.1,208L358.1,208z M356.8,217.5
	l-19.2-4.3c-0.4-0.1-0.8,0.2-0.9,0.5l-0.1,0.3c-0.1,0.4,0.2,0.8,0.6,0.9l9.5,2.1l-2.3,10.5l-9.5-2.1c-0.4-0.1-0.8,0.1-0.9,0.5
	l-0.1,0.3c-0.1,0.4,0.2,0.8,0.6,0.9l19.2,4.3c0.1,0,0.1,0,0.2,0c0.4,0,0.6-0.2,0.7-0.6l0-0.2c0-0.2,0-0.4-0.1-0.5
	c-0.1-0.2-0.3-0.3-0.5-0.3l-8.1-1.8l2.3-10.5l8.1,1.8c0.4,0.1,0.8-0.2,0.9-0.5l0.1-0.3C357.5,218,357.2,217.6,356.8,217.5z
	 M264.7,229.6c-0.2-5-1.4-9.7-3.3-13.9c-2-4.2-4.1-7.5-6.3-9.7c-2.3-2.2-4-3.3-5.1-3.3c-0.6,0-0.8,0.4-0.7,1.2l-0.1,0.8l0.1,1.2
	l0.2,2.4l0.3,1.3c0,0,8.3,25.9,8.3,27c0.2-5-5.1-24.4-5.2-25.6l0-0.6c2.7,1.9,9.9,13.6,9.5,18.2c-1.1,12.3-14.5,30.7-20.1,36
	c16.5-12,20.1-20.5,21.2-23.9C264.5,237.2,264.9,233.5,264.7,229.6z M276.7,250.1l21,14.1l0.6-1.8l-20.5-13.8L276.7,250.1z
	 M306.1,211.6c-2-0.5-3.5-0.5-4.5-0.1c-1.2,0.6-2,1.9-2.5,4.1l-1.5,6.1l-1.1-0.3c-2.7-0.7-3.1-2.1-2.2-5.6l2.3-10.9l0.1,0l0.3-3.8
	c0.2-1.8,1.2-2.6,3.2-2.4l20.7,1.9l-0.5-1.9l-20.1-1.9c-3-0.3-4.7,1-4.9,3.8l-0.4,4.1l0,0l-2.5,11.1c-0.6,2.2-0.6,3.9-0.1,5
	c0.5,1.1,1.9,2,4.1,2.5l6.1,1.5c1.6,0.4,3,0.2,4.3-0.5c1.5-0.9,2.5-2.4,3-4.5C311.1,215.5,309.4,212.5,306.1,211.6z M308.4,219.5
	c-0.7,2.9-2.9,4.2-5.3,3.6l-4.1-1l1.3-5.3c0.4-1.8,1-2.9,1.7-3.3c0.7-0.4,1.8-0.4,3.5,0C308.1,214.1,309.2,216.4,308.4,219.5z
	 M284,229.2c-1-1.5-1.1-3.1-0.3-4.9c0.6-1.4,1.5-2.6,2.6-3.6l-2,0c-0.9,0.8-1.6,1.8-2.1,2.9c-0.9,2.1-1,4-0.3,5.8
	c0.7,1.6,2.1,3.1,4.1,4.2l-1.7,3.8l0-0.1l-1.3,2.3c-2,3.5-0.9,7,2.5,8.9l16.3,9.3l0.4-1.9l-15.5-8.9c-3-1.7-3.7-4-2.1-6.8l0.6-0.8
	l0.1,0l2.3-5.1l14.7,6.6l0.2-1.9l-14.6-6.5C286.1,231.7,284.8,230.6,284,229.2z M281.4,258.5c-4.3-3.7-7.9-3.9-10.8-0.4
	c-1.2,1.4-1.7,3-1.6,4.7c0,0.1-0.2,0-0.6-0.3c-1.6-1.3-2.5-2.7-2.9-4.3c-0.5-1.8-0.1-3.3,1.1-4.8c1-1.2,2.2-2.1,3.5-2.7l-1.9-0.6
	c-1.1,0.5-2,1.2-2.9,2.2c-1.6,1.9-2.2,3.9-1.8,6c0.4,1.9,1.6,3.8,3.6,5.5l5.7,5.2c1.7,1.6,3.5,2.4,5.4,2.6c2,0.1,3.7-0.6,5.2-2.3
	C286.4,265.9,285.7,262.3,281.4,258.5z M282.2,268.2c-2.1,2.5-4.9,2.2-8.4-0.8c-3.5-3-4.2-5.8-2-8.3c2.1-2.5,4.9-2.2,8.4,0.8
	C283.7,263,284.3,265.8,282.2,268.2z M316.8,218c-0.8-0.2-1.3,0.1-1.5,0.9c-0.2,0.8,0.1,1.3,1,1.5c0.8,0.2,1.3-0.1,1.5-0.9
	C317.9,218.7,317.6,218.2,316.8,218z M315.7,222.3c-0.8-0.2-1.4,0.1-1.6,0.9c-0.2,0.8,0.1,1.3,1,1.5c0.8,0.2,1.3-0.1,1.5-0.9
	C316.8,223,316.5,222.5,315.7,222.3z M202.6,348.8l-1.9-1c-3.1-1.7-4.2-2.3-4.4-4.2c-0.1-1.8,0.3-4,4.7-4.2c1-0.1,1.9,0,2.9,0
	c0.4,0,0.9,0,1.3,0l0.1,0c0.2,0,0.4-0.1,0.5-0.1c0.2-0.1,0.3-0.3,0.3-0.5l0-0.4c0-0.4-0.3-0.6-0.8-0.7l-0.7,0c-1,0-2.2-0.1-3.7,0
	c-2.5,0.2-4.3,0.9-5.3,2.1c-0.8,1-1.1,2.3-1.1,3.9c0.2,2.8,2.3,4.1,5.4,5.7l1.8,1c2.6,1.4,3.8,2.3,3.9,3.8c0.1,2.2-1.3,3.2-4.8,3.4
	c-0.9,0.1-2,0-2.9,0c-0.6,0-1,0-1.3,0c-0.3,0-0.5,0.1-0.6,0.2c-0.1,0.1-0.2,0.3-0.1,0.4l0,0.4c0,0.4,0.3,0.6,0.7,0.6l0.6,0
	c0.7,0,1.4,0,2.2,0c0.5,0,1,0,1.5,0c4.5-0.3,6.7-2,6.5-5.2C207.3,351.5,205.2,350.2,202.6,348.8z M331,190c0-77.7-63.2-141-141-141
	S49,112.3,49,190s63.2,141,141,141S331,267.7,331,190z M190,329.5c-76.9,0-139.5-62.6-139.5-139.5S113.1,50.5,190,50.5
	S329.5,113.1,329.5,190S266.9,329.5,190,329.5z M240.8,347.2c-0.3-1.2-0.8-2.2-4.6-4.8c2.5-2.8,3.1-4.4,2.5-6.7l0-0.2
	c-0.8-3-3.2-3.6-5-3.6c-0.8,0-1.7,0.1-2.6,0.4c-2.2,0.6-3.9,1.8-5,3.5l-1.9-1.2c-0.2-0.2-0.5-0.2-0.7-0.1l-0.9,0.2
	c-0.2,0-0.3,0.1-0.3,0.2c-0.1,0.1-0.1,0.2,0,0.3c0,0.1,0.1,0.2,0.2,0.3l2.9,1.8c-0.7,2-0.7,4.4,0,6.9l0.1,0.3
	c0.1,0.5,0.5,0.7,0.9,0.6l0.4-0.1c0.2-0.1,0.3-0.2,0.4-0.3c0.1-0.2,0.1-0.4,0-0.6l-0.1-0.3c-0.5-2.1-0.6-4-0.2-5.6l3.8,2.4
	c0.5,0.3,1,0.6,1.4,0.9c0.6,0.4,1.1,0.7,1.6,1l-0.5,0.6c-2.7,2.8-3.4,4.6-2.9,6.8l0,0.2c0.6,2.1,2.1,3.3,4.4,3.3
	c0.6,0,1.3-0.1,2-0.3c3.5-0.9,5-3,4.2-5.8L240.8,347.2z M231.9,339.5l-4.5-2.9c0.8-1.4,2.2-2.4,4-2.9c0.7-0.2,1.3-0.3,2-0.3
	c1.3,0,3,0.4,3.5,2.4l0,0.2c0.5,1.9-0.1,3-2.1,5.2C234,340.8,233,340.2,231.9,339.5z M236.2,351.6c-2.3,0.6-3.7,0-4.2-1.9l0-0.2
	c-0.4-1.5-0.2-2.6,2.4-5.2l0.7-0.7c3.5,2.4,3.8,3.1,4.1,4l0,0.2C239.6,349.8,238.8,350.9,236.2,351.6z M152,205.8
	c2.2,0.6,4.5-2.8,3.2-5.2c-0.2,1.6-1.5,2.8-2.4,2.6c-0.9-0.1-1-1.1-0.8-2.2c-0.1,0-0.2,0.2-0.5,0.7c-3.7,6.1-17,5.6-10.6-1.4
	c-7.6,5.2,0.6,12.5,10.4,4.2C150.7,205,151.6,205.7,152,205.8z M205.6,168.9c18-19,19.1-34.1,24.3-34.2c0.8,0,1.7,1.6,2.5,5.1
	c0.8,3.4,1.8,6.2,2.8,8.2c1,2.1,2.8,3,5.3,2.9c0.2,0,0.4,0,0.7-0.1c0.3,0,0.8-0.1,1.4-0.2l1.9-0.5c1.1-0.5,1.9-1,2.5-1.5
	c0.5-0.5,1-1.1,1.4-1.8l1.1-2.2c0.6,1.4,1.2,2.6,1.9,3.6c0.7,0.9,2,1.6,3.8,1.9l0.6,0l0,0c1.1-0.1,2-0.5,2.7-1
	c0.8-0.6,1.5-1.4,2.2-2.4c0.7-1,1.1-2.1,1.4-3.3c0.1-0.7,0.2-1.3,0.2-1.9c0-0.6,0-1.2,0-1.9l-0.2-1.5l-0.3-1.2
	c-0.3-0.7-0.5-1-0.8-0.9c-0.4,0.1-0.6,1.1-0.8,2.9c-0.2,1.8-0.7,3-1.5,3.8c-0.8,0.8-1.5,1.2-1.9,1.5c-0.5,0.2-1.1,0.2-2,0.3
	c-1.5,0.1-2.6-0.1-3.3-0.6c-0.7-0.5-1.2-1.2-1.4-2c0-0.4,0.2-1.3,0.8-2.6c0.2-0.4,0.3-0.7,0.4-0.9c0.1-0.2,0.2-0.4,0.2-0.6
	c0.1-0.4,0.2-0.6,0.2-0.8c0-0.2-0.1-0.3-0.3-0.3l-2.7,3.9c-1,1.4-2,2.4-2.9,3c-1,0.6-1.8,1-2.5,1.2c-0.7,0.2-1.8,0.3-3.1,0.4
	c-2.9,0.2-4.7-0.6-5.5-2.4c-0.8-1.8-1.6-4.5-2.4-8.1c-0.8-3.6-1.8-5.4-3-5.4c-6.1,0.2-19.7,48.6-65.7,52.1
	c-24.5,1.8-55.1-12.7-46.7-47.4c-11.6,37.7,17.5,53.9,40.6,53.8C180,187.6,197.5,177.5,205.6,168.9z M123.7,152.5
	c-0.1-0.1-0.2-0.2-0.3-0.1l-2.7,0c-0.9,0.1-1.4,0.2-1.6,0.3c-0.1,0.1-0.1,0.2-0.1,0.3l0.1,1.6c0,0.9,0.1,1.5,0.2,1.7
	c0.1,0.1,0.3,0.1,0.6,0.1l2-0.1c1,0,1.7-0.2,1.9-0.4c0.1-0.1,0.1-0.2,0-0.4c0-0.1,0-0.3,0-0.5c0-0.2,0-0.6,0-1.1
	C123.9,153.1,123.8,152.6,123.7,152.5z M132.5,269.8c-0.7-0.5-1.2-0.3-1.7,0.4c-0.4,0.6-0.3,1.2,0.4,1.7c0.7,0.5,1.3,0.4,1.7-0.3
	C133.3,270.8,133.2,270.2,132.5,269.8z M176,105.2l0.7,0.8c0.8,0.8,1.3,1.3,1.5,1.3c0.2,0,0.5-0.1,0.7-0.3l1.8-1.6
	c0.9-0.8,1.4-1.4,1.5-1.8c0-0.2-0.1-0.3-0.3-0.4c-0.2-0.1-0.6-0.6-1.3-1.4c-0.6-0.8-1.1-1.2-1.3-1.3c-0.2,0-0.3,0-0.4,0.1l-1.8,1.6
	c-1.2,1-1.8,1.7-1.9,2.1c0,0.2,0.1,0.3,0.2,0.4L176,105.2z M127.2,156.6c-0.1-0.1-0.2-0.2-0.3-0.1l-2.7,0c-0.9,0.1-1.4,0.2-1.6,0.3
	c-0.1,0.1-0.1,0.2-0.1,0.3l0.1,1.6c0,0.9,0.1,1.5,0.2,1.7c0.1,0.1,0.3,0.1,0.6,0.1l2-0.1c1,0,1.7-0.2,1.9-0.4c0.1-0.1,0.1-0.2,0-0.4
	c0-0.1,0-0.3,0-0.5c0-0.2,0-0.6,0-1.1C127.4,157.2,127.3,156.7,127.2,156.6z M119.9,185.7c0.2,0.1,0.5-0.1,0.9-0.3l2.8-1.7
	c1.4-0.9,2.2-1.6,2.4-2.1c0.1-0.2,0-0.4-0.2-0.5c-0.1-0.2-0.3-0.4-0.5-0.7c-0.2-0.3-0.5-0.8-0.9-1.5c-0.8-1.2-1.3-1.9-1.5-2
	c-0.2,0-0.4,0-0.5,0l-3.8,2.2c-1.1,0.8-1.8,1.3-2,1.7c0,0.2,0,0.4,0.2,0.5l1.4,2.2C119,184.8,119.6,185.6,119.9,185.7z M220.1,104.5
	c0,0-0.3,0.6-0.4,0.9c-0.1,0.3-3.8,5.1-4.5,7.8c-0.5,1.7-0.8,4.4,1.1,5.5c1.1,0.7,3.2,0.6,4.2,0.1c0.4-0.2,2.1-0.7,2.6-4.6
	c0.3-2.4-0.9-4.1-2-5.1c-0.8-0.8-1.6-1.4-1.6-1.4s0.5-0.6,0.5-1.6C220,105.4,220.1,104.5,220.1,104.5z M222,114.4
	c-0.4,1.1-2.8,1.9-5.1,1.2c-2.3-0.8,1.1-5.3,1.1-5.3S222.3,113.7,222,114.4z M232,97.2c0.3-0.7,0.1-1.2-0.7-1.6
	c-0.8-0.3-1.3-0.1-1.6,0.6c-0.3,0.8-0.1,1.4,0.7,1.7C231.2,98.3,231.7,98,232,97.2z M226.3,96.2c0.8,0.3,1.3,0.1,1.6-0.7
	c0.3-0.7,0.1-1.2-0.7-1.6c-0.8-0.3-1.3-0.1-1.6,0.6C225.3,95.3,225.6,95.9,226.3,96.2z M220.6,135.5c12.2-6.4,10.6-15.7,12.3-21.5
	c4.5,3.2,6.9,8.2,7.2,12.4c1.4-7.9-3-15.4-14.3-19.7C230.3,113,230.4,126.6,220.6,135.5z M183.3,217.5c0.5-7.2-2-17.3-9.3-28
	c-0.1,0-0.3,0-0.5,0.1c-0.2,0.1-0.5,0.5-0.9,1.2c-0.4,0.7,4.5,22.3,4,25.8c2.4-1.5-0.6-17.3-0.5-17.2c8.2,16,3.9,25.4-2.2,27.5
	c-2.2,0.8-6.9,0.8-6.4-3.2c0.2-1.7,0.1-1.5,0.7-4.9l0.5-3.7l0.8-4.5l0.4-2.1l0.6-2.7l0.3-1.5l0.4-1.6c-0.2,0.2-0.4,0.4-0.6,0.6
	c-0.1,0.2-0.3,0.5-0.4,0.7c-0.2,0.2-0.3,0.5-0.5,0.9l-0.5,1.1c-0.4,1-0.8,2.2-1.2,3.5c-0.4,1.3-0.7,2.8-1.1,4.4
	c-0.7,3.3-1.1,5.7-1.3,7.3l-0.3,2.2l-0.2,1c-5.6,9-12.6,4.2-10-1.5c0,0,2.9-3.2,3.6-4.4c2.2-3.5,2.4-6,2.5-7.3
	c0.1-0.7,0-1.2-0.1-1.6c-0.2-0.4-0.4-0.6-0.7-0.7c-1-0.2-2.4,0-4.2,0.6c-1.8,0.6-3.1,1.3-4,2.1c-0.5,0.5-0.9,0.9-1.2,1.3
	c-0.3,0.4-0.6,0.8-0.9,1.3l-1,1.8l-0.8,1.9l-0.8,2l-0.3,1.3c-2.7,0.5-3.1-2.1-3.1-2.1c0-0.1,0-0.1,0-0.2c0-0.1,0-0.1,0-0.1l0.6-0.9
	l0.7-0.9l0.8-1.1l0.4-0.6c0-0.1,0-0.2-0.1-0.3c-0.3-0.1-0.6,0-0.9,0.1c-0.3,0.2-1,0.6-1.9,1.4c-7.8,6.1-11.9,2-8.6-2.6
	c0.8-1.1,1.3-3.3,1.2-3.5c-0.1-0.1-0.1-0.2-0.1-0.2c0,0-0.1-0.1-0.1-0.1c-0.5,0.3-1,0.7-1.4,1c-0.7,0.3-1.5,0.5-2.5,0.4l-3.9-0.4
	c-3.3-0.1-7.1,4.4-9,5.7c-4.1,2.8-16.6-0.6-20-18c2.2,23,13.3,25.6,18.6,22.6c2.3-1.3,4.1-3.5,5-4.5c3.3-3.7,7.2,0.8,10.4-1
	c-5,6.3-1.3,14,8,5.9l0.2-0.2c0,0-0.6,2.1,1.2,3.4c1.7,1.2,3.8,0.5,3.8,0.5l0,0.7c-0.3,2.5-0.7,8.3-0.3,8.4c0.8-0.8,2-9.3,2-9.3
	c0.6,0,1.1-0.1,1.6-0.2c0.8-0.2,1.4-0.3,2-0.7c-3.5,7.2,3.9,13.6,13,3.5c-1,4.2,6.2,8.1,12.8,2.1C181.6,226.7,183.1,220,183.3,217.5
	z M151.3,220.6c-0.8,0.3-1.5,0.4-2.3,0.5l0.2-1.2c0.1-0.2,0.2-0.4,0.4-0.9c0.4-0.9,1-1.9,1.8-2.9c0.8-1,1.9-1.7,3.2-2.2
	c1.5-0.5,2.8-0.6,3.9-0.4c0.3,0.1,0.3,0.4,0.1,0.9c-0.1,0.3-0.4,0.7-0.6,1.1c-0.3,0.4-0.6,0.8-1,1.3c-0.8,0.9-1.8,1.6-2.9,2.3
	C153,219.8,152.1,220.3,151.3,220.6z M141.4,238.3c1,0.8,1.7,1.1,2.2,1.1c0.3,0,0.5-0.1,0.7-0.1c0.2-0.1,0.4-0.2,0.7-0.3l1.4-0.9
	l1.1-0.9c0-0.1,0-0.2,0.1-0.3c-0.4-0.1-1.4-0.8-2.7-2c-1.4-1.2-2.4-1.7-2.9-1.7c-0.2,0-0.4,0.1-0.6,0.1c-0.2,0.1-0.5,0.2-0.8,0.4
	c-0.4,0.2-0.7,0.3-0.9,0.5c-0.2,0.2-0.4,0.3-0.6,0.4c-0.4,0.3-0.7,0.6-0.9,0.8c0,0.1-0.1,0.2-0.1,0.2c0,0.1,0,0.1,0,0.1L141.4,238.3
	z M135.3,233.4c-1.4-1.7-2.5-2.5-3.2-2.6c-0.4,0-0.9,0.1-1.6,0.3c-0.4,0-0.7,0.2-1.1,0.3l-1.1,0.5l-0.8,0.4l-0.4,0.3
	c-0.1,0.1-0.1,0.2-0.1,0.4c0.2,0.1,0.6,0.4,1.1,1l1.7,1.9c1.5,1.6,2.5,2.5,3.1,2.5c0.6,0.1,1.2,0,1.8-0.3l1.9-0.8l1.5-0.9l0.1-0.3
	C137.6,236.1,136.7,235.1,135.3,233.4z M138.9,262.1c0.2,0.3,0.4,0.6,0.8,1.1c0.7,1,1.1,1.5,1.3,1.6c0.2,0,0.3,0,0.4,0l2.9-2
	c0.9-0.7,1.4-1.1,1.5-1.5c0-0.2,0-0.3-0.2-0.4l-1.2-1.7c-0.7-1-1.1-1.6-1.4-1.7c-0.2,0-0.4,0.1-0.7,0.3l-2.1,1.5
	c-1.1,0.8-1.7,1.4-1.8,1.8c0,0.1,0,0.3,0.2,0.4C138.6,261.6,138.7,261.8,138.9,262.1z M245.5,130c0.9,0.6,1.4,0.9,1.7,0.9
	c0.2-0.1,0.4-0.2,0.5-0.5l1.3-2.1c0.7-1,1-1.7,1-2.2c0-0.2-0.2-0.3-0.4-0.3l-1.6-1l-1.1-0.7c-0.2-0.1-0.4-0.2-0.5-0.2
	c-0.1,0-0.1,0.1-0.3,0.1c0,0,0,0-0.1,0.1l-1.3,2c-0.9,1.3-1.3,2.1-1.3,2.5c0.1,0.2,0.2,0.3,0.4,0.4
	C244.1,129.1,244.6,129.4,245.5,130z M121.7,231.3c0-0.2,0-0.3,0-0.4l-1.8-3c-0.6-0.9-1.1-1.4-1.4-1.6c-0.2,0-0.3,0-0.4,0.2
	l-1.8,1.1c-1,0.6-1.6,1.1-1.7,1.4c0,0.2,0,0.4,0.3,0.8l1.4,2.2c0.7,1.1,1.3,1.8,1.7,1.9c0.1,0.1,0.3,0,0.4-0.2
	c0.1-0.1,0.3-0.2,0.6-0.4c0.3-0.2,0.7-0.4,1.2-0.7C121.1,232,121.6,231.5,121.7,231.3z M100.7,195.7c7.3-1.5,11.4,6.8,18.8,8.3
	c2.6,0.5,6.8-0.4,10.7-4.1l0.5-0.7l0.7-0.8l0.5-0.6l0.3-0.5c1.5-2.8,2.5-5.3,2.8-7.6c0.3-2-0.1-3.4-1.1-4.2l-0.4-0.3l-0.5-0.2
	c-1.5-0.6-3-0.5-4.4,0.3c-1.1,0.7-1.9,1.3-2.4,2l-0.6,0.9c-0.6,1.3-0.8,2.3-0.7,3.2c0.4,4.3,6.3,4.1,6.3,4.1c0,0.1-0.7,2.9-4,4.4
	c-3,1.4-8.1-1.2-10-3.1C111.6,190.8,103.6,192.2,100.7,195.7z M106.6,175.1c0.1,0.2,0.3,0.4,0.4,0.6c0.3,0.5,0.5,0.8,0.7,0.9
	c0.1,0,0.2,0.1,0.2,0.1c0.1,0,0.1,0,0.1,0l2.6-3.2c0.8-1,1.2-1.7,1.2-2.1c0-0.3,0-0.5-0.1-0.7c0-0.2-0.1-0.4-0.3-0.7l-0.9-1.5
	l-0.9-1.1c-0.1,0-0.2,0-0.2-0.1c-0.2,0.4-0.8,1.3-2.1,2.6c-1.2,1.3-1.8,2.3-1.8,2.9c0,0.2,0,0.4,0.1,0.6c0.1,0.2,0.2,0.5,0.3,0.8
	C106.3,174.5,106.5,174.8,106.6,175.1z M102.9,182.4c-0.1,0.4,0,0.9,0.3,1.6c0,0.4,0.1,0.7,0.3,1.1l0.5,1.1l0.4,0.8l0.3,0.4
	c0.1,0.1,0.2,0.1,0.4,0.1c0.1-0.2,0.5-0.6,1-1l2-1.6c1.7-1.4,2.6-2.4,2.7-3c0.1-0.6,0-1.2-0.2-1.8l-0.7-1.9l-0.8-1.5l-0.3-0.1
	c-0.3,0.5-1.3,1.4-3,2.8C103.8,180.7,102.9,181.7,102.9,182.4z M116.2,232.9c-0.2,0-0.3,0-0.4,0.2l-1.8,1.1c-1,0.6-1.6,1.1-1.7,1.4
	c0,0.2,0,0.4,0.3,0.8l1.4,2.2c0.7,1.1,1.3,1.8,1.7,1.9c0.1,0.1,0.3,0,0.4-0.2c0.1-0.1,0.3-0.2,0.6-0.4c0.3-0.2,0.7-0.4,1.2-0.7
	c1-0.6,1.5-1.1,1.6-1.3c0-0.2,0-0.3,0-0.4l-1.8-3C117,233.6,116.5,233,116.2,232.9z M159.6,189c-3.5,1.6-22.8,8-24.7,10.2
	c-1,1.1-1.4,2.3-1.4,3.9c1.2-2.2,3.4-2.9,4.5-3.5c1.1-0.6,16.1-6.6,17.7-7.3C157.4,191.6,158.8,191.3,159.6,189z M190.2,76
	c1.7,0,3.2-1.4,3.2-3.1c0-0.5-0.1-0.9-0.3-1.3c-0.5-1.2-1.6-2-2.9-2c-1.7,0-3.2,1.4-3.2,3.1c0,0.5,0.1,0.9,0.3,1.3
	C187.7,75.1,188.8,76,190.2,76z M190.4,146.6c0.6,0.7,1,1.1,1.2,1.1c0.2,0,0.3-0.1,0.4-0.2c0.2-0.1,0.9-0.7,1.9-1.7l1-1.5l-1.2-1.3
	c-0.6-0.7-1.1-1.1-1.2-1.2l-0.3,0.1c-0.1,0.1-0.6,0.6-1.6,1.4c-1,0.8-1.5,1.3-1.6,1.7c0,0.2,0.1,0.3,0.2,0.4
	C189.4,145.5,189.8,145.9,190.4,146.6z M212.6,84c2.8,0.7,5,0.1,6.5-1.9c0.5,2.4,2.1,4,4.8,4.7l0.3,0.1l0,0.1l1.8,0.8
	c2.4,1,4.5,0.8,6.3-0.5c0.3,2.2,1.6,3.8,3.9,4.8l1.8,0.8l0,0l15.1,9.5l-0.2-2.1l-8.9-5.7l4.9-7.7c1.6-2.6,4.4-3.6,6.8-2
	c1.3,0.8,2,1.8,2,2.9l1.9-0.4c-0.4-1.6-1.3-2.8-2.6-3.7c-1.9-1.2-3.7-1.5-5.5-1c-1.8,0.6-3.3,1.8-4.5,3.6l-4.6,7.2l-3.8-2.2l0,0
	l-1.6-0.7c-3-1.3-3.8-3.4-2.6-6.5l4.3-10.3l-1.9-0.2l-3.9,9.6c-1.3,3.2-3.5,4.2-6.4,3l-0.5-0.2l0,0l-1.4-0.7
	c-3.2-0.8-4.3-2.9-3.5-6.3l2.6-10.6l-6.8-1.7c-1.7-0.4-3.2-0.3-4.5,0.5c-1.9,1.1-3.2,3.3-3.9,6.4C207,79.5,208.4,83,212.6,84z
	 M210.2,74.1c1.2-4.8,3.4-6.7,6.6-5.9l4.8,1.2l-1.8,7.1c-1.2,4.8-3.4,6.8-6.6,6C210,81.7,209,78.9,210.2,74.1z M203.5,139.6
	c3.3-10.7-4.2-30.8-4.2-30.8c3.4,2.8,10.9,16.5,10.9,23.4c0,9.7-31.3,42.3-60.2,41.5c36.3,4.9,61.4-24.9,62.5-37.8
	c0.5-6.7-0.4-13-2.4-18.8c-2-5.9-4.3-10.5-7-13.7c-2.1-2.4-4.2-3.5-5.7-3.7c-0.7-0.1-2,2.8-2,2.8S204.2,130.8,203.5,139.6z
	 M190.1,108.2c0.1-0.1,0.2-0.3,0.3-0.4c0.1-0.2,0.2-0.3,0.2-0.4c0.2-0.3,0.3-0.5,0.3-0.6c0.2-0.4,0.4-0.7,0.4-0.9
	c0.2-0.5,0.1-0.9-0.1-1.1c-0.2-0.2-0.4-0.3-0.6-0.4L190,104c-0.6-0.3-0.9-0.6-0.8-0.8c0.1-0.5,0.4-0.8,0.8-0.8l1-0.2
	c0.2-0.2,0.3-0.3,0.3-0.5l0.2-0.4c0.2-0.2,0.3-0.5,0.4-0.7c0.1-0.3,0-0.4-0.1-0.5c-1,0.1-1.8,0.6-2.6,1.6c-0.8,1-1.3,2-1.6,3
	c-0.1,0.3,0,0.6,0.3,0.9c0.3,0.3,0.7,0.6,1.3,0.8c0.6,0.3,0.8,0.5,0.8,0.7c-0.2,0.4-0.7,0.9-1.3,1.3c-0.8,0.5-1.6,0.9-2.6,1.2
	l1.5-0.1C188.9,109.1,189.8,108.7,190.1,108.2z M152.2,146c0.7,0.9,1.2,1.3,1.5,1.4c0.2,0,0.4-0.1,0.7-0.4l1.8-1.6
	c0.9-0.8,1.4-1.4,1.5-1.8c0-0.1,0-0.3-0.2-0.4c-0.1-0.1-0.3-0.3-0.5-0.5c-0.2-0.2-0.5-0.5-0.8-1c-0.7-0.8-1.2-1.2-1.4-1.3
	c-0.2,0-0.3,0-0.4,0.1l-2.5,2.1c-0.7,0.7-1.2,1.2-1.2,1.5c0,0.2,0.1,0.3,0.2,0.4L152.2,146z M164.1,151.5c-2.6,0.3-4.5,0.7-4.5,0.7
	c-0.7,0.2-0.7,0.3-0.7,0.3c0.1,0,0.5,0.1,0.5,0.1c1.3,0.2,4.7,0.8,5.5,0.6c1.1-0.2,2.1-0.8,2.5-1.1c1.1-0.8,3.5-2.8,3.9-3.2
	c0.4-0.4,0.2-0.5,0.2-0.5c-2.4-2.2-6.5-2.9-6.9-3c-0.4-0.1-0.8-0.1-0.8-0.1c-1.8,0.9-3.6,3-3.6,3c-0.1,0.1,0.1,0.1,0.1,0.1
	c0.2,0,0.3,0,0.3,0c3.8,0.4,5.9,1.8,6.3,2.1c0.3,0.2,0.2,0.4,0.2,0.4S165.9,151.3,164.1,151.5z M182.9,116.6
	c0.9,0.6,1.5,1.2,1.8,1.4c0.3,0.3,0.4,0.3,0.5,0.2c0.1-0.1,0.3-0.5,0.3-0.5c0.3,0.2,0.4,0.6,0.6,0.9c0.9,2.4,1.1,4.3,1.2,5
	c0.1,0.6,0.2,0.6,0.2,0.6c0.3-0.1,0.6-0.6,0.9-1.1c0.7-1.5,1.6-7.4,3.4-7.9c1.3-0.4,2.2,2.8,0.3,5.1c3.5-2.5,2-7.7,0-7.2
	c-0.9,0.2-1.3,1.1-1.3,1.1c-0.8,1.3-1.6,4.3-1.6,4.3c-0.3,1.4-0.6,2.6-0.8,3.1c-0.2,0.4-0.2,0.2-0.2,0.2c0-1.6-0.6-3.5-0.9-4.4
	c-0.7-2.3-2.3-3.1-2.3-3.1c-1.4-0.6-1.6,0.1-1.6,0.1c-0.1,0.1-0.6,1.2-0.6,1.7C182.7,116.4,182.9,116.6,182.9,116.6z M252.9,154.4
	c-0.2-0.2-0.5-0.5-0.8-1c-0.7-0.8-1.2-1.2-1.4-1.3c-0.2,0-0.3,0-0.4,0.1l-2.5,2.1c-0.7,0.7-1.2,1.2-1.2,1.5c0,0.2,0.1,0.3,0.2,0.4
	l1.3,1.5c0.7,0.9,1.2,1.3,1.5,1.4c0.2,0,0.4-0.1,0.7-0.4l1.8-1.6c0.9-0.8,1.4-1.4,1.5-1.8c0-0.1,0-0.3-0.2-0.4
	C253.3,154.8,253.1,154.6,252.9,154.4z M179.9,128.5c-0.5,0.8-0.8,1.5-0.9,2.1c-0.1,0.6-0.1,1-0.1,1.3c0,0.2,0,0.6,0,1
	c0.1,1.7,0.5,2.8,1,3.6c2.1,3,5.7,1,6.4,0.8c-0.6,14.8-39.8,31.9-56.2,23.6c21,14.1,56.9-1.3,58.5-23.5c0,0,4-0.3,6.5-3.6
	c0.7-0.9,1.1-2.1,1.3-3.4c0.1-0.7,0.2-1.3,0.2-1.9c0-0.6,0-1.2,0-1.9l-0.2-1.5l-0.3-1.2c-0.3-0.7-0.6-1-0.8-0.9
	c-0.4,0.1-0.6,1.1-0.8,2.9c-0.1,1.8-0.6,3-1.4,3.8c-2.4,2.3-5.2,2.2-5.5,2.3c-0.6-1.7-1.5-2.9-2.4-3.7c-1-0.8-2-1.1-2.9-1.1
	C181.2,127.3,180.4,127.7,179.9,128.5z M200.8,216c2.6-2.3,4-5.6,4.2-9.8c0.2-4.5-0.2-7.2-1.4-8c-1.3-1-3.2-1.8-5.8-2.5
	c-2.6-0.7-4.1-2.1-3.7-4.2c0.8-4.5,4-6.1,5.7-6c0.9,0,1.4,0.2,1.6,0.4l1.2,1.3l0.4-1.5l0.2-2.2c0-0.7,0-1.2,0-1.6l-0.2-1.1
	c-0.1-0.4-0.2-0.8-0.4-1c-0.4-0.8-0.9-1.2-1.6-1.2c-1.8-0.1-7.1,3.5-8.6,12.8c-0.6,3.4,0.4,6,1.9,7.6c1.5,1.6,3.2,2.7,5.3,3.4
	c2.1,0.7,3.2,1.3,3.4,1.8c0.2,0.5,0.3,1.2,0.2,2c-0.1,2.2-1.2,4-3.2,5.5c-5,3.8-18-1.1-12.8-25.1C179.2,210.3,192.9,223.2,200.8,216
	z M226.4,163.5c1.8-1.4,0.5-5.3-2.2-5.7c1.2,1.1,1.3,2.9,0.7,3.5c-0.6,0.6-1.5,0.2-2.3-0.7c-0.1,0.1,0,0.3,0.3,0.8
	c2.7,6.6-5.7,17-7.4,7.7c-0.3,9.2,10.4,6.9,9.6-5.8C225,164.1,226,163.7,226.4,163.5z M232.5,165.6c0.5-1.2,1.1-1.9,0.5-3.4
	c-1.1,2.5-8,14.6-7.9,16.6c0,1,0.3,1.8,1,2.6c-0.4-1.7,0.4-3,0.7-3.8C227.1,176.7,232,166.8,232.5,165.6z M217,61.5
	c0.8,0.2,1.3-0.1,1.5-1c0.2-0.8-0.1-1.3-0.9-1.4c-0.8-0.2-1.3,0.1-1.5,0.9C216,60.8,216.2,61.3,217,61.5z M199,220.4
	c-0.7-0.5-1.1-0.8-1.3-0.8c-0.1,0-0.3,0.1-0.4,0.4l-1.1,1.5c-0.5,0.8-0.8,1.3-0.8,1.6c0,0.1,0.1,0.2,0.2,0.2
	c0.1,0.1,0.2,0.2,0.4,0.3c0.2,0.1,0.4,0.3,0.8,0.6c0.7,0.5,1.1,0.7,1.3,0.7c0.1,0,0.2-0.1,0.3-0.1l1.5-2c0.4-0.6,0.6-1.1,0.6-1.3
	c0-0.1-0.1-0.2-0.2-0.2L199,220.4z M190.7,223.7c0.1,0.1,0.2,0.2,0.4,0.3c0.2,0.1,0.4,0.3,0.8,0.6c0.7,0.5,1.1,0.7,1.3,0.7
	c0.1,0,0.2-0.1,0.3-0.1l1.5-2c0.4-0.6,0.6-1.1,0.6-1.3c0-0.1-0.1-0.2-0.2-0.2l-1.2-0.8c-0.7-0.5-1.1-0.8-1.3-0.8
	c-0.1,0-0.3,0.1-0.4,0.4l-1.1,1.5c-0.5,0.8-0.8,1.3-0.8,1.6C190.5,223.5,190.6,223.6,190.7,223.7z M221.3,62.6
	c0.8,0.2,1.3-0.1,1.5-1c0.2-0.8-0.1-1.2-0.9-1.4c-0.8-0.2-1.3,0.1-1.5,0.9C220.3,61.9,220.5,62.4,221.3,62.6z M247.6,184.5
	c0.1,0.1,0.3,0,0.4-0.2c0.1-0.1,0.3-0.2,0.5-0.4c0.2-0.2,0.6-0.4,1.1-0.6c0.9-0.6,1.4-1,1.5-1.2c0-0.2,0-0.3,0-0.4l-1.7-2.8
	c-0.6-0.8-1-1.3-1.3-1.4c-0.2,0-0.3,0-0.4,0.1l-1.6,1c-1,0.6-1.5,1-1.6,1.3c0,0.2,0,0.4,0.3,0.7l1.3,2
	C246.8,183.8,247.3,184.4,247.6,184.5z M242.5,186.1c0,0.2,0,0.4,0.3,0.7l1.3,2c0.7,1,1.2,1.6,1.5,1.8c0.1,0.1,0.3,0,0.4-0.2
	c0.1-0.1,0.3-0.2,0.5-0.4c0.2-0.2,0.6-0.4,1.1-0.6c0.9-0.6,1.4-1,1.5-1.2c0-0.2,0-0.3,0-0.4l-1.7-2.8c-0.6-0.8-1-1.3-1.3-1.4
	c-0.2,0-0.3,0-0.4,0.1l-1.6,1C243.1,185.4,242.6,185.8,242.5,186.1z"/>
</svg>
