<?xml version="1.0" encoding="UTF-8"?>
<svg width="75px" height="79px" viewBox="0 0 75 79" version="1.1" xmlns="http://www.w3.org/2000/svg" xmlns:xlink="http://www.w3.org/1999/xlink">
    <!-- Generator: Sketch 53 (72520) - https://sketchapp.com -->
    <title>Group</title>
    <desc>Created with Sketch.</desc>
    <defs>
        <polygon id="path-1" points="0 0.0403286713 74.5819853 0.0403286713 74.5819853 78.4475516 0 78.4475516"></polygon>
    </defs>
    <g id="VD-II" stroke="none" stroke-width="1" fill="none" fill-rule="evenodd" opacity="0.400000006">
        <g id="8.-PDP" transform="translate(-96.000000, -3576.000000)">
            <g id="Group-2" transform="translate(0.000000, 3250.000000)">
                <g id="Group" transform="translate(96.000000, 326.000000)">
                    <g id="Group-90">
                        <g id="Group-3" transform="translate(0.000000, 0.512119)">
                            <mask id="mask-2" fill="white">
                                <use xlink:href="#path-1"></use>
                            </mask>
                            <g id="Clip-2"></g>
                            <path d="M62.0754596,67.4503105 C52.5350184,76.9524084 37.5901654,80.432828 24.7960478,75.4055552 C12.4982537,70.9307301 2.68207721,58.2244364 1.13795956,45.2971636 C-1.17821691,29.1104503 5.99090074,13.6419189 19.9431066,5.4656951 C29.2629596,-0.335004196 43.6563419,-0.721717483 53.3070772,4.63702378 C60.8070772,8.33842238 67.5350184,15.9069538 70.6784007,23.4754853 C77.0754596,38.0048559 73.5460478,56.511849 62.0754596,67.4503105 M70.2923713,20.8789818 C64.4467831,9.27758322 53.0313419,1.1566042 40.4026654,0.162198601 C24.4100184,-1.16367552 9.85119485,8.44891189 3.45413603,22.9230378 C-1.56424632,33.253807 -1.01277574,48.0594014 4.44678309,58.0034573 C10.898989,70.2125483 23.4725184,78.5545063 37.3144301,78.4440168 C52.0386949,78.6649958 65.9909007,68.4999608 71.4504596,55.0202406 C76.0828125,44.9104503 75.4761949,30.546814 70.2923713,20.8789818" id="Fill-1" fill="#FEFEFE" mask="url(#mask-2)"></path>
                        </g>
                        <path d="M31.9101838,5.09400839 C32.1859191,4.54156084 32.7373897,4.15484755 33.2888603,4.04435804 C34.0057721,4.04435804 34.7226838,4.21009231 35.0535662,4.87302937 C35.2741544,5.42547692 35.3844485,5.97792448 35.3293015,6.64086154 C35.1638603,7.08281958 34.9432721,7.52477762 34.3918015,7.74575664 C33.7851838,8.02198042 32.9028309,7.96673566 32.4065074,7.46953287 C31.8550368,6.8065958 31.5793015,5.92267972 31.9101838,5.09400839 M34.5020956,8.40869371 C35.0535662,8.74016224 35.6050368,9.12687552 36.2116544,9.29260979 C36.763125,9.45834406 37.2594485,9.23736503 37.700625,8.96114126 C37.6454779,8.9058965 37.5903309,8.9058965 37.6454779,8.85065175 C36.7079779,8.96114126 35.9359191,8.40869371 35.2190074,7.91149091 L35.7153309,7.52477762 C36.2116544,6.8065958 36.3770956,5.81219021 36.1013603,4.98351888 C35.9359191,4.54156084 35.4947426,4.0996028 35.1087132,3.82337902 C34.3366544,3.38142098 33.4543015,3.38142098 32.6270956,3.65764476 C31.8550368,3.93386853 31.138125,4.65205035 30.9726838,5.48072168 C30.6969485,6.41988252 31.138125,7.19330909 31.7447426,7.85624615 C32.4616544,8.51918322 33.5094485,8.62967273 34.5020956,8.40869371" id="Fill-4" fill="#FEFEFE"></path>
                        <path d="M38.086489,7.41412238 L38.4173713,8.02181469 C39.2445772,8.51901748 40.1820772,8.68475175 41.1747243,8.40852797 C42.2225184,8.07705944 42.0019301,6.91691958 42.1122243,6.0330035 C42.2776654,5.25957692 41.891636,4.26517133 42.4431066,3.65747902 C42.0570772,3.60223427 41.5056066,3.65747902 41.1747243,3.65747902 L41.3953125,4.04419231 C41.2298713,5.31482168 41.6159007,6.86167483 40.8438419,7.91132517 C40.5129596,8.07705944 39.961489,8.07705944 39.6306066,7.91132517 C39.1894301,7.69034615 38.8034007,7.24838811 38.8034007,6.75118531 C39.023989,5.81202448 38.5828125,4.37566084 39.1894301,3.60223427 C38.8034007,3.4365 38.3070772,3.65747902 37.9210478,3.4365 C38.3622243,4.59663986 37.9761949,6.14349301 38.086489,7.41412238" id="Fill-6" fill="#FEFEFE"></path>
                        <path d="M46.1380147,5.31493217 C46.1931618,5.92262448 46.3034559,6.53031678 46.2483088,7.08276434 L45.1453676,6.69605105 C45.47625,6.19884825 45.7519853,5.70164545 46.1380147,5.31493217 L46.1380147,5.31493217 Z M43.8769853,8.90584126 C43.6563971,8.2429042 44.4284559,7.80094615 44.6490441,7.2484986 C45.3108088,7.63521189 46.6894853,7.2484986 46.5240441,8.35339371 C46.5240441,8.68486224 46.7997794,9.45828881 46.2483088,9.51353357 C46.6343382,9.73451259 47.1858088,9.8450021 47.6269853,9.8450021 C47.5166912,9.67926783 47.4063971,9.51353357 47.2961029,9.29255455 C47.2961029,7.91143566 46.9100735,6.7512958 46.9100735,5.37017692 C47.0755147,4.59675035 46.3034559,4.48626084 45.7519853,4.43101608 L45.8622794,4.70723986 L43.1600735,8.29814895 C43.0497794,8.46388322 42.66375,8.40863846 42.7188971,8.57437273 L43.8769853,8.90584126 Z" id="Fill-8" fill="#FEFEFE"></path>
                        <path d="M24.5754596,7.85624615 C24.9063419,8.79540699 25.5129596,9.67932308 25.3475184,10.6737287 C25.8438419,10.7289734 26.1195772,10.2870154 26.6159007,10.2870154 C26.6159007,10.0660364 26.2850184,10.1765259 26.2298713,9.95554685 L24.7960478,6.36463776 C25.1820772,6.14365874 25.5681066,5.92267972 26.0092831,6.08841399 C26.2850184,6.1989035 26.4504596,6.53037203 26.4504596,6.8065958 C26.5056066,7.3037986 25.954136,7.69051189 25.6784007,7.96673566 L25.8438419,8.13246993 C26.6710478,8.68491748 27.4431066,9.4030993 28.4909007,9.51358881 C28.766636,9.4030993 29.1526654,9.34785455 29.2629596,9.12687552 C28.2703125,8.96114126 27.3879596,8.24295944 26.5056066,7.74575664 C26.9467831,7.41428811 27.2225184,6.86184056 27.1122243,6.1989035 C26.4504596,4.54156084 24.7409007,6.03316923 23.6931066,6.1989035 C24.2445772,6.53037203 24.3548713,7.24855385 24.5754596,7.85624615" id="Fill-10" fill="#FEFEFE"></path>
                        <path d="M51.763125,10.9497315 C51.763125,10.8944867 51.763125,10.839242 51.7079779,10.7839972 C50.9359191,11.1154657 50.2190074,10.5630182 49.6123897,10.1763049 C49.9984191,8.96092028 50.7153309,7.91126993 51.2116544,6.69588531 C51.3219485,6.53015105 51.6528309,6.64064056 51.5976838,6.41966154 C51.1565074,6.36441678 50.825625,6.08819301 50.4395956,5.92245874 L50.5498897,6.25392727 L48.950625,9.73434685 C48.8403309,9.95532587 48.6197426,10.2867944 48.3440074,10.2315497 C49.1712132,10.7287524 50.1087132,11.060221 50.9910662,11.5574238 L51.763125,10.9497315 Z" id="Fill-12" fill="#FEFEFE"></path>
                        <path d="M21.7079779,12.0546266 C21.8182721,12.1651161 21.8182721,12.5518294 21.7079779,12.6623189 C22.5903309,12.2756056 23.4726838,11.723158 24.2998897,11.2259552 C24.3550368,10.8944867 24.1344485,10.6735077 24.2447426,10.2867944 L24.0793015,10.2867944 C23.9138603,11.1154657 22.9212132,11.3916895 22.3145956,11.6126685 C22.0940074,11.060221 21.6528309,10.6735077 21.5425368,10.1210601 C21.9285662,10.0105706 22.2043015,9.62385734 22.6454779,9.6791021 L22.3145956,9.12665455 L21.2668015,9.62385734 C21.0462132,9.29238881 20.825625,8.90567552 20.6050368,8.57420699 C20.9910662,8.18749371 21.4873897,7.80078042 22.0388603,7.96651469 C22.0940074,7.69029091 21.8182721,7.46931189 21.763125,7.19308811 C20.9910662,7.5798014 20.2190074,8.0770042 19.3918015,8.46371748 L19.3918015,8.57420699 C19.4469485,8.62945175 19.5572426,8.57420699 19.6675368,8.62945175 C20.4947426,9.6791021 20.9910662,10.8944867 21.7079779,12.0546266" id="Fill-14" fill="#FEFEFE"></path>
                        <path d="M53.0865993,12.4966951 L54.2446875,10.3973944 C54.685864,9.84494685 54.9064522,8.96103077 55.623364,8.74005175 C55.2373346,8.51907273 54.9064522,8.24284895 54.5204228,8.07711469 L54.5755699,8.46382797 L52.4248346,11.9442476 L52.0388051,12.1099818 C52.3696875,12.3862056 52.810864,12.7176741 53.1417463,12.7176741 L53.0865993,12.4966951 Z" id="Fill-16" fill="#FEFEFE"></path>
                        <path d="M15.6418015,12.2204713 C15.8072426,11.6680238 16.2484191,11.3918 16.7447426,11.1155762 L18.950625,14.098793 L19.0609191,14.6512406 L20.1638603,13.8225692 C20.1087132,13.656835 19.9984191,13.8225692 19.8329779,13.7673245 C18.8954779,12.8834084 18.0682721,11.6680238 17.3513603,10.6183734 C17.6822426,10.3973944 17.9579779,9.95543636 18.4543015,10.0659259 C18.3440074,9.7897021 18.2888603,9.56872308 18.1785662,9.2924993 C17.2410662,10.0659259 16.2484191,10.7841077 15.3109191,11.4470448 C15.5315074,11.612779 15.3660662,12.0547371 15.6418015,12.2204713" id="Fill-18" fill="#FEFEFE"></path>
                        <path d="M55.0167463,14.098793 C55.4027757,14.319772 55.7336581,14.8169748 56.1196875,14.9827091 L56.0645404,14.540751 L58.435864,11.5022895 C58.7667463,11.7232685 59.373364,11.9994923 59.3182169,12.4966951 C59.5388051,12.3862056 59.8145404,12.1099818 60.0351287,11.9442476 L57.3329228,9.7897021 C57.0020404,9.7897021 56.8365993,10.1211706 56.560864,10.2316601 C57.0571875,10.3421497 57.553511,10.6183734 57.8843934,11.0603315 C56.9468934,12.0547371 56.1748346,13.4911007 55.0167463,14.098793" id="Fill-20" fill="#FEFEFE"></path>
                        <path d="M52.0388603,59.4547371 C52.8109191,60.6701217 53.9138603,61.8302615 55.0719485,62.8246671 C56.2300368,61.8855063 57.4984191,60.6148769 58.4910662,59.4547371 C65.4947426,50.9470448 67.700625,37.2463455 62.8476838,27.0260657 C61.3035662,23.9323594 59.2079779,20.9491427 56.3954779,18.4078839 C48.6197426,10.7288629 35.3293015,8.74005175 25.5682721,13.6015902 C15.4212132,18.2973944 9.575625,28.7938979 9.41018382,39.7876042 C9.18959559,51.0022895 15.5315074,62.5484434 26.0645956,66.8022895 C33.6197426,70.1722196 44.3734191,69.619772 51.3770956,65.3106811 C50.2741544,64.5372545 49.1712132,63.763828 48.013125,62.7694224 C43.6565074,65.4764154 37.8660662,66.3050867 32.5168015,65.1449469 C24.575625,63.542849 18.950625,56.4162755 17.2962132,48.8477441 C14.9800368,37.6883035 16.3035662,25.2029888 25.5682721,18.0764154 C31.138125,13.5463455 40.2925368,13.3806112 46.6344485,16.363828 C56.3403309,21.556835 59.263125,32.163828 58.6565074,42.770821 C57.7741544,48.8477441 56.450625,54.9246671 52.0388603,59.4547371" id="Fill-22" fill="#FEFEFE"></path>
                        <path d="M16.3034007,15.4799119 C16.4688419,15.7008909 16.4688419,15.9218699 16.4136949,16.1980937 C16.2482537,16.584807 15.8622243,16.9715203 15.4761949,17.1372545 C15.2004596,17.2477441 14.7592831,17.3029888 14.5938419,17.5239678 C14.9247243,17.5792126 15.1453125,18.0211706 15.5313419,17.8554364 C16.4688419,17.3029888 17.1857537,16.5295622 17.0754596,15.3694224 C16.579136,13.4911007 14.704136,15.1484434 13.4357537,14.9827091 C13.1048713,14.8169748 13.1048713,14.4302615 13.2151654,14.098793 C13.4909007,13.5463455 14.0423713,13.3253664 14.5938419,13.2148769 C14.4835478,13.0491427 14.2629596,12.7729189 13.9872243,12.6624294 C13.2703125,13.1043874 12.3328125,13.9330587 12.4431066,14.9274643 C13.1048713,17.026765 15.0901654,14.8169748 16.3034007,15.4799119" id="Fill-24" fill="#FEFEFE"></path>
                        <path d="M58.4356985,17.0819545 L59.3180515,18.0763601 L59.3731985,18.0763601 C59.814375,15.9218147 62.2408456,16.3637727 63.7849632,15.8113252 L62.9577574,14.9826538 C62.7923162,15.0378986 63.0129044,15.0931434 62.9577574,15.2036329 C62.5165809,15.8113252 61.6342279,15.5351014 61.0276103,15.8113252 C60.6967279,14.8169196 62.2959926,13.4358007 60.8070221,12.6623741 C60.751875,13.7120245 60.3658456,14.7616748 60.1452574,15.8113252 C59.5937868,16.1427937 59.1526103,17.0819545 58.4356985,17.0819545" id="Fill-26" fill="#FEFEFE"></path>
                        <path d="M10.3476287,17.1372545 L13.5461581,19.733758 L13.6564522,20.1204713 C13.8770404,19.7890028 14.2079228,19.4575343 14.4836581,19.070821 C14.373364,19.0155762 14.1527757,19.070821 13.9873346,19.070821 L10.8990993,16.584807 L10.7888051,16.0876042 L9.90645221,17.1372545 L9.96159926,17.1924993 C10.0718934,17.1372545 10.2373346,17.1924993 10.3476287,17.1372545" id="Fill-28" fill="#FEFEFE"></path>
                        <path d="M8.03134191,23.987549 C8.69310662,24.3742622 9.57545956,24.650486 10.4026654,24.3190175 C11.6710478,23.7665699 12.1673713,22.385451 12.6085478,21.2253112 L10.5681066,20.0651713 C10.4026654,20.3966399 10.1820772,20.7833531 10.0717831,21.0595769 C10.7335478,20.7833531 11.3401654,21.3910455 11.836489,21.722514 C11.6159007,22.6064301 10.898989,23.4903462 9.96148897,23.6008357 C9.24457721,23.6008357 8.5828125,23.5455909 8.08648897,22.9378986 C7.81075368,22.4959406 7.59016544,21.9987378 7.70045956,21.4462902 C7.86590074,20.7833531 8.30707721,20.0099266 9.02398897,19.7889476 C8.74825368,19.678458 8.5828125,19.4022343 8.25193015,19.4022343 C7.86590074,20.0099266 7.31443015,20.5623741 7.20413603,21.2805559 C6.87325368,22.2749615 7.20413603,23.3246119 8.03134191,23.987549" id="Fill-30" fill="#FEFEFE"></path>
                        <path d="M66.1562868,20.5624846 C65.8254044,21.0596874 65.439375,21.4464007 65.1636397,21.9436035 C64.9430515,21.6673797 64.6673162,21.2806664 64.501875,20.9491979 C64.9430515,20.7282189 65.6048162,20.6729741 66.1562868,20.5624846 L66.1562868,20.5624846 Z M62.1305515,21.6673797 C62.2959926,20.9491979 63.2334926,21.2806664 63.7849632,21.0044427 L64.7224632,22.5512958 C64.2261397,22.8827643 64.1158456,23.7666804 63.4540809,23.7114357 C63.6195221,24.1533937 63.8952574,24.540107 64.1709926,24.9268203 C64.2812868,24.761086 64.2261397,24.5953517 64.2261397,24.4848622 C65.0533456,23.1037434 66.2665809,21.8883587 66.9834926,20.5624846 C66.8731985,20.2310161 66.6526103,19.8995476 66.4871691,19.6233238 L66.4320221,19.8995476 C64.7776103,20.2310161 63.0680515,20.6729741 61.5239338,20.6177294 L62.1305515,21.6673797 Z" id="Fill-32" fill="#FEFEFE"></path>
                        <path d="M65.6600184,27.1918552 C65.1085478,26.6946524 65.1085478,25.8107364 65.273989,25.0925545 C64.9982537,25.1477993 64.7776654,25.4792678 64.5019301,25.5345126 C64.5570772,26.5289182 64.8879596,27.468079 65.7703125,28.0205266 C66.266636,28.1862608 66.8732537,28.2967503 67.3144301,27.8547923 C67.8659007,26.9708762 67.3695772,25.6450021 68.086489,24.9268203 C68.5276654,24.7058413 68.8585478,25.0373098 69.023989,25.3687783 C69.2997243,25.7554916 69.1894301,26.2526944 69.1342831,26.6946524 L69.2445772,26.6946524 C70.2372243,26.6946524 69.7409007,25.7554916 69.5754596,25.2582888 C69.2997243,24.7058413 68.8585478,24.098149 68.141636,24.0429042 C66.3217831,24.2638832 67.3695772,26.4736734 66.4872243,27.4128343 C66.1563419,27.4128343 65.8806066,27.4128343 65.6600184,27.1918552" id="Fill-34" fill="#FEFEFE"></path>
                        <path d="M7.03880515,27.6890028 C7.64542279,28.0757161 8.52777574,28.1309608 8.91380515,28.7938979 C9.29983456,27.9099818 9.63071691,26.9155762 10.0167463,26.0316601 C9.74101103,25.8659259 9.57556985,25.3687231 9.2446875,25.4792126 C9.63071691,26.2526392 9.02409926,26.9155762 8.69321691,27.5785133 C8.19689338,27.3022895 7.70056985,27.1365552 7.20424632,26.970821 C7.31454044,26.6393524 7.3696875,26.0869049 7.75571691,25.9211706 C7.53512868,25.8106811 7.31454044,25.7001916 7.09395221,25.5897021 L6.65277574,26.6945972 C6.21159926,26.5841077 5.82556985,26.4183734 5.43954044,26.1973944 C5.60498162,25.7001916 5.66012868,25.1477441 6.21159926,24.8715203 C6.04615809,24.6505413 5.71527574,24.705786 5.4946875,24.5400517 C5.16380515,25.3134783 4.83292279,26.1421497 4.44689338,26.970821 C5.43954044,26.6945972 6.15645221,27.5232685 7.03880515,27.6890028" id="Fill-36" fill="#FEFEFE"></path>
                        <path d="M23.4725184,53.8197168 L23.4725184,54.6483881 L23.6379596,54.6483881 L48.454136,54.4826538 L51.6526654,46.9141224 C51.8732537,46.5274091 51.3217831,46.5274091 51.1011949,46.4169196 C48.1232537,51.1127238 42.4982537,53.101535 36.9835478,52.2176189 C35.5497243,51.8861503 34.0056066,50.5602762 33.6747243,49.0686678 L33.5644301,39.4560804 L33.5644301,24.650486 C33.5092831,24.650486 33.5092831,24.5399965 33.398989,24.5399965 L23.4173713,24.650486 C23.1967831,24.8162203 23.4725184,25.2029336 23.3622243,25.5344021 C24.1894301,25.6448916 25.0717831,25.6448916 25.7886949,26.0316049 C26.7813419,26.5288077 27.9394301,27.5232133 27.9945772,28.7938427 L28.0497243,50.0078287 L27.9394301,51.2232133 C27.2776654,53.0462902 25.3475184,53.8749615 23.4725184,53.8197168" id="Fill-38" fill="#FEFEFE"></path>
                        <path d="M47.9028309,32.9925545 C48.013125,31.5009462 47.7373897,29.8436035 47.1307721,28.5177294 C44.4285662,24.0429042 39.1344485,24.540107 34.3366544,24.5953517 C34.2815074,24.9268203 34.2263603,25.3135336 34.3918015,25.5345126 C37.3145956,25.5897573 40.2925368,26.4184287 41.7815074,29.1806664 C42.8844485,31.0589881 42.6087132,33.9317154 41.5609191,35.6995476 C39.9065074,38.1303168 37.2043015,39.0694776 34.3366544,39.0142329 C34.4469485,39.2904566 34.3918015,39.6219252 34.3918015,39.8429042 C36.2668015,39.7324147 37.5903309,41.1135336 38.3623897,42.605142 C39.4653309,45.6436035 40.5682721,48.682065 41.8366544,51.5547923 C43.6013603,51.2233238 45.2557721,50.726121 46.7998897,49.8974497 C46.0278309,47.3561909 45.3109191,44.7596874 43.9322426,42.4394077 C43.2704779,41.3345126 42.2226838,40.2296175 40.8991544,39.898149 C42.0572426,39.7324147 43.1050368,39.2904566 44.0976838,38.7380091 C46.1932721,37.5226245 47.7373897,35.368079 47.9028309,32.9925545" id="Fill-40" fill="#FEFEFE"></path>
                        <path d="M67.9763051,31.5561357 C67.6454228,31.8323594 67.2593934,31.5561357 66.9836581,31.3351566 C66.4873346,30.7827091 66.7079228,29.7330587 66.873364,29.1806112 L66.1013051,29.6225692 C65.991011,30.7827091 66.3770404,31.8876042 67.4248346,32.384807 C69.4101287,32.8820098 68.8586581,30.4512406 69.5755699,29.5120797 C69.741011,29.3463455 70.0167463,29.4015902 70.1821875,29.456835 C70.4027757,29.5120797 70.4579228,29.7330587 70.5682169,29.898793 C70.8439522,30.2855063 70.678511,30.8931986 70.5130699,31.3351566 L71.2851287,31.1694224 C71.3402757,30.6169748 71.2299816,29.9540378 70.9542463,29.456835 C70.678511,29.0148769 70.2373346,28.4624294 69.6307169,28.5729189 C68.0865993,28.9043874 68.748364,30.6722196 67.9763051,31.5561357" id="Fill-42" fill="#FEFEFE"></path>
                        <path d="M4.17104779,32.495186 C5.32913603,32.8818993 6.65266544,32.8818993 7.59016544,33.5448364 C7.70045956,33.1581231 7.81075368,32.716165 7.86590074,32.3294517 C7.75560662,32.3294517 7.70045956,32.4399413 7.59016544,32.495186 L3.67472426,31.6112699 L3.72987132,31.0588224 C3.8953125,30.5616196 4.39163603,30.2853958 4.94310662,30.5063748 C5.32913603,30.8378434 5.60487132,31.2798014 5.43943015,31.8874937 C6.59751838,31.2798014 8.69310662,31.2245566 8.52766544,29.5119692 C7.81075368,30.2853958 6.76295956,30.6168643 5.88060662,31.0588224 C5.7703125,30.7273538 5.66001838,30.3406406 5.43943015,30.009172 C5.16369485,29.7329483 4.72251838,29.7329483 4.33648897,29.6777035 C3.17840074,30.1196615 3.28869485,31.5007804 2.9578125,32.495186 C3.28869485,32.2189622 3.78501838,32.4399413 4.17104779,32.495186" id="Fill-44" fill="#FEFEFE"></path>
                        <path d="M67.8106985,34.0421497 C67.314375,34.7603315 67.314375,35.9204713 67.5901103,36.6938979 C68.4724632,38.5722196 70.6231985,37.1358559 72.1673162,37.356835 L72.5533456,37.5225692 C72.4430515,37.1358559 72.4981985,36.6386531 72.4430515,36.2519399 C71.7812868,36.8043874 70.8437868,36.5834084 70.0717279,36.8043874 C69.4099632,36.6938979 68.8033456,37.0253664 68.251875,36.5834084 C67.9209926,36.1966951 67.8658456,35.4785133 68.0864338,35.0365552 C68.3621691,34.649842 68.8033456,34.3736182 69.2445221,34.3183734 C70.2371691,34.2078839 71.3952574,33.8764154 72.2776103,34.2631287 C72.0570221,33.9316601 72.2224632,33.4344573 72.1121691,33.0477441 C71.9467279,33.3792126 71.5055515,33.3792126 71.1746691,33.4344573 C70.0717279,33.6001916 68.6930515,33.3239678 67.8106985,34.0421497" id="Fill-46" fill="#FEFEFE"></path>
                        <path d="M3.01290441,40.008528 C4.61216912,40.3399965 4.66731618,38.4616748 5.54966912,37.743493 C5.88055147,37.5777587 6.21143382,37.6330035 6.43202206,37.964472 C6.98349265,38.7378986 6.376875,39.6770594 6.04599265,40.229507 C6.32172794,40.3399965 6.59746324,40.0637727 6.92834559,40.0637727 C7.20408088,39.4560804 7.20408088,38.6274091 7.03863971,37.964472 C6.87319853,37.522514 6.54231618,37.0805559 6.10113971,36.9148217 C5.65996324,36.7490874 5.21878676,36.9148217 4.88790441,37.2462902 C4.22613971,37.8539825 4.22613971,39.2903462 3.06805147,39.1798566 C2.90261029,39.1246119 2.84746324,38.9036329 2.73716912,38.7931434 C2.57172794,38.185451 2.79231618,37.5777587 3.12319853,37.1910455 L2.35113971,37.1910455 C2.07540441,37.6330035 2.24084559,38.2959406 2.18569853,38.8483881 C2.35113971,39.2903462 2.51658088,39.8427937 3.01290441,40.008528" id="Fill-48" fill="#FEFEFE"></path>
                        <path d="M70.1269853,39.5666252 C69.2446324,39.5666252 68.1968382,39.7323594 67.5902206,39.2351566 L67.5350735,40.505786 C67.7005147,40.5610308 67.6453676,40.3952965 67.8108088,40.3400517 C69.0240441,40.3400517 70.4027206,40.284807 71.6711029,40.3952965 L71.8365441,40.505786 C71.8916912,41.0029888 71.7813971,41.4449469 71.3953676,41.7211706 C71.0644853,41.8316601 70.6784559,41.7211706 70.4578676,41.5554364 C70.1821324,41.2792126 70.0166912,40.9477441 70.0166912,40.5610308 C69.1343382,40.8924993 68.3071324,41.5554364 67.5902206,42.2183734 C67.3696324,42.549842 67.3696324,43.0470448 67.4799265,43.433758 C67.97625,42.6050867 68.91375,42.0526392 69.6858088,41.4449469 C69.9615441,41.4449469 69.9615441,41.9421497 70.2372794,42.1078839 C70.5130147,42.4945972 70.9541912,42.549842 71.4505147,42.4945972 C72.6086029,41.9973944 72.2225735,40.3952965 72.3328676,39.4008909 C71.7813971,39.9533385 70.8438971,39.5113804 70.1269853,39.5666252" id="Fill-50" fill="#FEFEFE"></path>
                        <path d="M2.95797794,41.8317154 C3.17856618,41.8317154 3.34400735,42.1079392 3.56459559,42.1079392 C3.61974265,42.1079392 3.61974265,41.9974497 3.61974265,41.9422049 C3.39915441,41.6659811 2.95797794,41.3897573 2.46165441,41.4450021 C2.24106618,41.5002469 2.075625,41.6659811 2.075625,41.9422049 C2.18591912,42.1631839 2.40650735,42.2736734 2.62709559,42.2736734 C2.90283088,42.2184287 2.73738971,41.9422049 2.95797794,41.8317154" id="Fill-52" fill="#FEFEFE"></path>
                        <path d="M3.45424632,45.4226245 C3.56454044,44.8149322 4.22630515,44.3177294 4.83292279,44.2624846 C5.38439338,44.2072399 5.93586397,44.2624846 6.37704044,44.5939531 C6.87336397,45.0911559 7.09395221,45.6436035 7.03880515,46.3617853 C5.93586397,46.6380091 4.77777574,46.8037434 3.6196875,46.9694776 C3.34395221,46.5275196 3.34395221,45.9198273 3.45424632,45.4226245 M7.86601103,47.3561909 C7.53512868,46.3065406 7.70056985,45.0359112 6.92851103,44.2072399 C6.21159926,43.3233238 4.83292279,43.1023448 3.89542279,43.6547923 C2.18586397,44.5387084 2.95792279,46.7484986 3.12336397,48.1848622 C3.23365809,48.1296175 3.28880515,47.9638832 3.34395221,47.9086385 C4.83292279,47.6876594 6.37704044,47.0247224 7.86601103,47.3561909" id="Fill-54" fill="#FEFEFE"></path>
                        <path d="M69.189375,47.1350462 C69.1342279,46.8035776 69.3548162,46.3616196 69.3548162,45.9196615 C69.9062868,46.1406406 70.2923162,46.5825986 70.8437868,46.8588224 L69.189375,47.1350462 Z M71.4504044,46.5273538 L68.4724632,44.6490322 C68.0864338,44.3175636 67.5901103,44.2070741 67.4798162,43.6546266 C67.2592279,43.9860951 67.2040809,44.5385427 67.1489338,44.9252559 C67.7555515,44.5385427 68.3070221,45.3119692 68.8584926,45.588193 L68.4724632,47.3560252 C67.8658456,47.3007804 67.0937868,47.7979832 66.6526103,47.3007804 C66.5974632,47.7427385 66.376875,48.2399413 66.4871691,48.6818993 L66.9283456,48.4056755 L71.5055515,47.4112699 C71.5055515,47.0798014 71.7261397,46.7483329 71.7261397,46.4168643 C71.5606985,46.3616196 71.5606985,46.5273538 71.4504044,46.5273538 L71.4504044,46.5273538 Z" id="Fill-56" fill="#FEFEFE"></path>
                        <path d="M70.1821875,51.2233238 C68.9689522,50.7813657 67.7557169,50.2841629 66.4873346,49.8422049 L66.1564522,49.3450021 C66.0461581,49.7317154 65.8807169,50.1184287 65.7704228,50.4498972 L65.8807169,50.4498972 C67.0388051,50.2289182 68.0865993,51.168079 69.2446875,51.4443028 C68.6932169,51.7757713 67.9211581,51.8862608 67.2593934,52.1624846 C66.3218934,52.6044427 64.998364,52.5491979 64.4468934,53.3778692 L68.5829228,55.0352119 L68.9689522,55.5324147 L69.3549816,54.3722748 C68.0865993,54.5932538 66.9836581,53.7645825 65.935864,53.3778692 C67.3696875,52.8806664 68.8586581,52.4939531 70.2924816,51.9967503 L70.623364,51.1128343 L70.5130699,51.0575895 C70.4027757,51.0575895 70.3476287,51.2233238 70.1821875,51.2233238" id="Fill-58" fill="#FEFEFE"></path>
                        <path d="M8.91375,50.7812552 C8.80345588,50.394542 8.69316176,49.8420944 8.41742647,49.4553811 C8.19683824,50.1735629 7.31448529,50.0630734 6.76301471,50.394542 C5.60492647,50.2840524 4.61227941,49.8973392 3.50933824,49.6211154 C3.56448529,50.0078287 3.78507353,50.4497867 3.95051471,50.8365 L3.95051471,50.7260105 C4.50198529,50.1183182 5.38433824,50.7812552 6.04610294,50.8917448 C5.66007353,51.6099266 4.83286765,52.1623741 4.61227941,52.9358007 C4.66742647,53.2120245 4.72257353,53.5987378 4.94316176,53.764472 C5.32919118,52.8253112 6.15639706,52.0518846 6.81816176,51.2232133 C7.47992647,51.057479 8.14169118,50.4497867 8.91375,50.7812552" id="Fill-60" fill="#FEFEFE"></path>
                        <path d="M10.2924265,56.4715755 C9.90639706,57.1345126 9.29977941,57.6869601 8.52772059,57.7422049 C7.97625,57.8526944 7.64536765,57.5212259 7.20419118,57.3554916 C6.70786765,56.8030441 6.43213235,55.9743727 6.76301471,55.2561909 C7.25933824,54.3722748 8.19683824,53.875072 9.13433824,54.0408063 C9.63066176,54.096051 10.0166912,54.5932538 10.2924265,54.9799671 C10.4027206,55.4771699 10.4027206,55.9743727 10.2924265,56.4715755 M10.6233088,57.5212259 C11.2299265,56.8582888 11.2299265,55.5876594 10.8438971,54.8142329 C10.3475735,53.8198273 9.29977941,53.212135 8.19683824,53.2673797 C7.42477941,53.2673797 6.81816176,53.7093378 6.37698529,54.3170301 C5.99095588,54.9799671 5.77036765,56.0296175 6.15639706,56.8582888 C6.59757353,57.7974497 7.53507353,58.5708762 8.63801471,58.5156315 C9.46522059,58.5708762 10.1269853,58.0736734 10.6233088,57.5212259" id="Fill-62" fill="#FEFEFE"></path>
                        <path d="M48.8953676,55.3113804 L43.6563971,55.3113804 C46.7446324,62.1617301 53.9688971,67.4652266 61.6343382,67.2994923 C61.7997794,67.0785133 61.7997794,66.6365552 61.6894853,66.470821 C55.5681618,66.3050867 50.7703676,60.5043874 48.8953676,55.3113804" id="Fill-64" fill="#FEFEFE"></path>
                        <path d="M64.3365441,55.3666804 C63.2336029,55.698149 62.35125,56.8582888 62.2409559,57.9631839 C62.4063971,58.1841629 62.5166912,58.5708762 62.7924265,58.626121 C62.7924265,58.2394077 62.7924265,57.8526944 62.9578676,57.5212259 C63.1233088,56.9687783 63.6196324,56.4715755 64.1711029,56.3058413 C64.6674265,56.140107 65.2188971,56.3058413 65.6600735,56.4163308 C66.3218382,56.8582888 66.8733088,57.5212259 66.7078676,58.3498972 C66.5424265,59.0128343 65.9909559,59.5100371 65.4946324,59.8415056 L65.9909559,60.2282189 C66.3218382,60.2834636 66.5975735,59.7862608 66.8181618,59.5652818 C67.3696324,58.7918552 67.7005147,57.5764706 67.0938971,56.6925545 C66.5424265,55.7533937 65.4394853,55.3114357 64.3365441,55.3666804" id="Fill-66" fill="#FEFEFE"></path>
                        <path d="M14.0975184,60.1175636 L12.4431066,57.8525287 C12.1122243,57.6867944 11.6710478,57.9077734 11.3953125,58.0182629 C11.7813419,58.0735077 12.0019301,58.2944867 12.2776654,58.5154657 C12.4982537,58.902179 12.9394301,59.3441371 12.8842831,59.7308503 C11.7261949,60.3385427 10.6784007,61.5539273 9.41001838,61.830151 C9.68575368,62.2168643 9.90634191,62.5483329 10.1820772,62.8798014 C10.954136,61.7749063 12.4431066,61.0567245 13.5460478,60.1728084 L14.0975184,60.1175636 Z" id="Fill-68" fill="#FEFEFE"></path>
                        <path d="M61.523989,59.3441923 L61.4136949,58.8469895 L59.648989,61.001535 C59.5386949,61.1120245 59.5386949,61.3882483 59.704136,61.443493 C59.8144301,61.664472 59.9247243,61.9406958 60.0901654,61.9959406 C60.0350184,61.222514 60.641636,60.5595769 61.3034007,60.1176189 L62.516636,61.1672692 C62.2960478,61.3882483 62.0754596,61.885451 61.6894301,61.9406958 C61.9100184,62.1064301 62.0203125,62.2721643 62.2409007,62.3826538 L62.9026654,61.5539825 C63.2335478,61.6092273 63.7850184,61.9959406 64.0056066,62.3826538 C63.6747243,62.7141224 63.454136,63.3770594 62.9026654,63.3218147 C62.9578125,63.5980385 63.2335478,63.7637727 63.5092831,63.8742622 C63.9504596,63.2113252 64.6673713,62.5483881 65.0534007,61.8302063 L64.7225184,61.8302063 L61.523989,59.3441923 Z" id="Fill-70" fill="#FEFEFE"></path>
                        <path d="M13.8769853,61.3330587 C14.7041912,61.3883035 15.2005147,62.1617301 15.6416912,62.7694224 L12.8843382,65.3106811 L12.4431618,65.3106811 C12.66375,65.6421497 12.9946324,66.0841077 13.3806618,66.3050867 C13.3255147,66.1945972 13.3806618,66.0288629 13.3806618,65.9183734 L16.3034559,63.2113804 L16.7997794,63.0456462 L14.8144853,60.9463455 C14.4836029,61.056835 14.0424265,61.1120797 13.8769853,61.3330587" id="Fill-72" fill="#FEFEFE"></path>
                        <path d="M18.3439522,67.3546818 C18.123364,67.4099266 17.9027757,67.5204161 17.8476287,67.6861503 C17.8476287,67.9071294 17.7373346,68.2385979 17.9579228,68.3490874 C18.123364,68.5148217 18.4542463,68.4595769 18.6196875,68.4043322 C18.7851287,68.3490874 18.9505699,68.1833531 18.8402757,67.9623741 C18.8402757,67.6309056 18.6748346,67.2994371 18.3439522,67.3546818" id="Fill-74" fill="#FEFEFE"></path>
                        <path d="M24.7959926,68.5701217 C24.4651103,68.2938979 24.0790809,68.1281636 23.6379044,67.9624294 L23.6930515,68.2938979 C23.1967279,69.5645273 22.4798162,70.8351566 21.8180515,71.9952965 L21.4871691,72.2162755 C21.8180515,72.4372545 22.2592279,72.5477441 22.6452574,72.8239678 C22.7004044,72.6582336 22.5349632,72.6029888 22.5349632,72.4372545 L24.0239338,69.3435483 C24.2996691,69.1225692 24.3548162,68.5701217 24.7959926,68.5701217" id="Fill-76" fill="#FEFEFE"></path>
                        <path d="M25.7888051,69.398793 C23.9689522,70.6141776 26.5057169,71.884807 26.7814522,73.1554364 C26.616011,73.7631287 25.9542463,73.6526392 25.4579228,73.5973944 C24.9615993,73.4316601 24.4652757,72.9344573 24.1895404,72.4924993 C24.1895404,72.8239678 23.9689522,73.1554364 24.1343934,73.4316601 C24.9064522,73.9841077 25.8990993,74.4260657 26.8917463,74.0393524 C28.9873346,72.6582336 26.0093934,71.6085832 26.0093934,70.2827091 C26.1196875,70.0064853 26.3954228,69.840751 26.6711581,69.840751 C27.2777757,69.840751 27.6638051,70.1722196 27.9946875,70.7246671 C28.1601287,70.5589329 28.2704228,70.2827091 28.2704228,70.0064853 C27.6086581,69.5092825 26.7263051,69.1225692 25.7888051,69.398793" id="Fill-78" fill="#FEFEFE"></path>
                        <path d="M47.4062868,73.8737287 C47.2408456,74.2051972 46.8548162,74.260442 46.4687868,74.260442 C45.4761397,73.5975049 45.0901103,72.3268755 45.2555515,71.1667357 C45.3658456,71.0010014 45.4761397,70.7247776 45.6415809,70.6695329 C46.1379044,70.3380643 46.5790809,70.7800224 46.9651103,71.0562462 C47.4614338,71.8296727 47.8474632,72.9345678 47.4062868,73.8737287 M46.5790809,69.8961063 C45.751875,69.8961063 44.8695221,70.1723301 44.5937868,70.9457566 C44.2629044,72.216386 44.5386397,73.5975049 45.5312868,74.481421 C45.9724632,74.7024 46.4687868,75.0338685 47.0754044,74.8128895 C47.5165809,74.7024 47.9577574,74.3709315 48.1783456,73.9289734 C48.564375,73.0450573 48.3437868,71.9401622 48.0129044,71.1667357 C47.6820221,70.6142881 47.1856985,70.1170853 46.5790809,69.8961063" id="Fill-80" fill="#FEFEFE"></path>
                        <path d="M32.9579228,74.1499524 C32.6821875,74.5366657 32.3513051,74.9786238 31.8549816,75.0891133 C31.303511,75.1996028 30.6417463,75.0891133 30.2557169,74.7576448 C29.5388051,74.1499524 29.428511,73.1555469 29.7593934,72.3268755 C29.9248346,71.774428 30.4211581,71.4429594 30.9726287,71.2772252 C31.7998346,71.1114909 32.4064522,71.4429594 32.8476287,72.0506517 C33.123364,72.6583441 33.2336581,73.4870154 32.9579228,74.1499524 M32.4064522,70.8352671 C31.4689522,70.3380643 30.2005699,70.6695329 29.428511,71.3324699 C28.7667463,71.995407 28.6013051,73.1555469 28.8218934,74.0394629 C29.0976287,74.8128895 29.9248346,75.4758266 30.6968934,75.6415608 C31.7446875,75.8625399 32.9027757,75.5863161 33.6196875,74.6471552 C34.116011,73.9842182 34.1711581,72.7688336 33.7299816,72.0506517 C33.5093934,71.4982042 32.9579228,71.0562462 32.4064522,70.8352671" id="Fill-82" fill="#FEFEFE"></path>
                        <path d="M42.4430515,75.0336476 C42.1673162,75.2546266 41.7812868,75.4203608 41.4504044,75.2546266 C40.5680515,74.702179 40.4577574,73.4867944 40.5680515,72.4923888 C40.6231985,72.1056755 40.8437868,71.7189622 41.2298162,71.6084727 C41.7812868,71.4979832 42.1673162,71.9399413 42.4430515,72.3266545 C42.7187868,73.1000811 42.939375,74.260221 42.4430515,75.0336476 M41.3952574,70.8902909 C40.6783456,70.9455357 40.126875,71.4979832 39.8511397,72.1609203 C39.4099632,73.3763049 39.7408456,74.7574238 40.6783456,75.6413399 C41.2298162,75.9175636 42.001875,76.1937874 42.5533456,75.7518294 C43.0496691,75.4756056 43.3805515,74.9784028 43.4908456,74.4259552 C43.7114338,73.3210601 43.4356985,72.1056755 42.6636397,71.2770042 C42.2776103,71.0007804 41.8364338,70.9455357 41.3952574,70.8902909" id="Fill-84" fill="#FEFEFE"></path>
                        <path d="M36.5424816,71.2218147 C35.8255699,71.2770594 35.1638051,71.7742622 34.9432169,72.4924441 C34.7777757,73.1001364 34.9432169,73.7630734 35.3843934,74.2050315 C35.8255699,74.4812552 36.3770404,74.5917448 36.873364,74.4812552 C37.1490993,74.315521 37.3696875,74.094542 37.4248346,73.8183182 C37.3145404,73.8183182 37.2042463,73.9288077 37.0939522,73.9840524 C36.5976287,74.094542 36.1564522,73.9840524 35.8255699,73.5973392 C35.4946875,73.0448916 35.6601287,72.6029336 35.8807169,72.1057308 C36.2115993,71.829507 36.5976287,71.7742622 37.0388051,71.7742622 C37.4248346,71.9399965 37.7005699,72.3267098 37.810864,72.7134231 C37.9763051,73.5420944 37.810864,74.315521 37.2042463,74.9232133 C36.7630699,75.6966399 35.6601287,75.5309056 35.3292463,76.2490874 C36.2115993,76.0833531 37.0388051,75.9176189 37.7005699,75.2546818 C38.4726287,74.4812552 38.9689522,73.3211154 38.4726287,72.271465 C38.0865993,71.4980385 37.3145404,71.1665699 36.5424816,71.2218147" id="Fill-86" fill="#FEFEFE"></path>
                        <path d="M51.838511,72.569179 L51.6581801,72.617242 C51.2600184,72.7304937 51.2285846,72.7282839 50.919761,72.0493259 L49.7175551,69.4036545 C49.5890625,69.1208014 49.4026654,68.6937594 49.3475184,68.5396266 C49.3249081,68.5070322 49.2907169,68.4970881 49.2504596,68.5070322 C49.0695772,68.7860182 48.7122243,69.1539483 48.247886,69.5019902 C48.2296875,69.5445287 48.2776654,69.6505986 48.3311581,69.6688294 L48.6454963,69.5682839 C48.9410846,69.4765776 49.036489,69.6373399 49.2488051,70.1047105 L50.2679228,72.3465427 C50.5761949,73.0255007 50.5579963,73.0509133 50.2111213,73.2774168 L50.0567096,73.3823818 C50.0324449,73.4442559 50.0964154,73.5856825 50.1620404,73.5818154 C50.4537684,73.4315497 50.7361213,73.2939902 51.0526654,73.1498014 C51.3261949,73.0249483 51.6212316,72.8989902 51.9190257,72.7796615 C51.9653493,72.7332559 51.9013787,72.5918294 51.838511,72.569179" id="Fill-88" fill="#FEFEFE"></path>
                    </g>
                </g>
            </g>
        </g>
    </g>
</svg>