<?xml version="1.0" encoding="UTF-8"?>
<svg width="64px" height="64px" viewBox="0 0 64 64" version="1.1" xmlns="http://www.w3.org/2000/svg" xmlns:xlink="http://www.w3.org/1999/xlink">
    <!-- Generator: Sketch 52 (66869) - http://www.bohemiancoding.com/sketch -->
    <title>Care</title>
    <desc>Created with Sketch.</desc>
    <g id="Care" stroke="none" stroke-width="1" fill="none" fill-rule="evenodd">
        <g id="Group-9" transform="translate(7.000000, 10.000000)">
            <g id="Group-7" fill="#EC0100">
                <g id="Group-3">
                    <path d="M14.0693953,35.4562115 L24.9874378,45.538493 C24.9874378,45.538493 28.6720708,42.1633741 36.0413367,35.4131363 L45.3942004,26.2283866 C51.4044307,20.3256913 51.6124608,10.8171827 45.5470388,4.89920254 L45.4210886,4.76719781 C42.5497071,1.97147674 38.9820616,0.566668591 35.3521486,0.420768634 C31.7208203,0.274868678 28.0286398,1.09468748 24.9874378,3.40546489 C18.8880518,-1.18552041 10.2031487,-1.34392608 4.62596068,4.2141675 C4.4988126,4.36444709 4.40236935,4.50800673 4.33663094,4.64484642 C-1.32405216,10.5795008 -1.53710804,20.3923884 4.53397458,26.3075895 L14.0693953,35.4562115 Z" id="Fill-1"></path>
                </g>
            </g>
            <path d="M16.6181194,4.17557151 L16.6181194,8.93747627 C12.4120901,8.93747627 9.00687818,12.326988 9.00687818,16.5026469 L4.24497342,16.5026469 C4.24497342,9.69212175 9.78707639,4.17557151 16.6181194,4.17557151 Z" id="Oval-4" fill="#FAFAFA" fill-rule="nonzero"></path>
        </g>
    </g>
</svg>