<?xml version="1.0" encoding="UTF-8"?>
<svg width="26px" height="26px" viewBox="0 0 26 26" version="1.1" xmlns="http://www.w3.org/2000/svg" xmlns:xlink="http://www.w3.org/1999/xlink">
    <!-- Generator: Sketch 52.1 (67048) - http://www.bohemiancoding.com/sketch -->
    <title>Fill 1</title>
    <desc>Created with Sketch.</desc>
    <g id="Desktop" stroke="none" stroke-width="1" fill="none" fill-rule="evenodd">
        <g id="02.Loans-_Home_Mortgage-Loan-Against_Property_PDP_logos-underneath" transform="translate(-369.000000, -4180.000000)" stroke="#FFFFFF" stroke-width="2">
            <g id="Ways-to-apply" transform="translate(0.000000, 3862.000000)">
                <g id="Group-4" transform="translate(342.000000, 291.000000)">
                    <path d="M51.3516222,46.1815002 C52.2161259,47.0833558 52.2161259,48.1655826 51.3516222,49.0310033 C50.7392654,49.6446259 50.1269086,50.2214528 49.5505728,50.8347146 C48.7220901,51.7730052 47.7135024,52.0615991 46.5248098,51.9894506 C44.7958024,51.8812279 43.210879,51.3401145 41.6979975,50.582195 C38.3120246,48.9231414 35.4303456,46.6504651 32.9809184,43.764527 C31.179869,41.6357869 29.7030085,39.2909622 28.7304418,36.6939787 C28.262169,35.4313808 27.9379801,34.1327086 28.0100221,32.761888 C28.0820641,31.8957459 28.4062529,31.1742613 29.0186097,30.5974345 C29.7030085,29.9480984 30.3153653,29.2987623 30.9997641,28.6490655 C31.8642678,27.7836448 32.9448974,27.7836448 33.8094011,28.6490655 C34.3497159,29.1901789 34.8540098,29.6955788 35.3943246,30.2366922 L36.9432271,31.7878839 C37.8437518,32.6897396 37.8437518,33.7719664 36.9432271,34.673822 L34.9980937,36.6218302 C34.8179888,36.8022014 34.8179888,36.9104241 34.8900308,37.1265087 C35.3222826,38.173022 35.9346394,39.0748776 36.6550592,39.9406591 C38.0598777,41.6722219 39.6808221,43.2234136 41.5539135,44.4138631 C41.9501444,44.6663827 42.4184172,44.8467538 42.8506691,45.0992734 C43.066795,45.2074961 43.210879,45.1710611 43.3909839,44.99069 C44.0393617,44.3413539 44.6877395,43.6563044 45.3361172,43.0066075 C46.200621,42.1411869 47.2812506,42.1411869 48.1457543,43.0066075 C49.2624049,44.0888343 50.3070136,45.1353476 51.3516222,46.1815002" id="Fill-1"></path>
                </g>
            </g>
        </g>
    </g>
</svg>