<?xml version="1.0" encoding="UTF-8"?>
<svg width="64px" height="64px" viewBox="0 0 64 64" version="1.1" xmlns="http://www.w3.org/2000/svg" xmlns:xlink="http://www.w3.org/1999/xlink">
    <!-- Generator: Sketch 52 (66869) - http://www.bohemiancoding.com/sketch -->
    <title>Integrity</title>
    <desc>Created with Sketch.</desc>
    <g id="Integrity" stroke="none" stroke-width="1" fill="none" fill-rule="evenodd">
        <g id="Group" transform="translate(3.000000, 9.000000)">
            <path d="M59.5102234,13.6783271 C59.5120644,13.6792803 59.5139054,13.6802336 59.5157463,13.681187 C56.5343839,28.3685649 48.9854287,38.7841767 36.8688806,44.9280224 C24.7523326,38.7841767 17.2033774,28.3685649 14.2220149,13.681187 C14.2238559,13.6802336 14.2256969,13.6792803 14.2275379,13.6783271 L14.2220149,13.6707043 C21.0978415,10.1136603 28.7687948,8.12686568 36.8587546,8.12686568 C36.865505,8.12686707 36.8722557,8.12686568 36.8790067,8.12686568 C44.9689665,8.12686568 52.6399198,10.1136603 59.5157463,13.6707043 L59.5102234,13.6783271 Z" id="Combined-Shape" fill="#FF0100" opacity="0.50297619"></path>
            <path d="M53.2335082,6.52540204 C53.2356722,6.52652244 53.2378362,6.52764297 53.2400001,6.52876364 C49.7355916,23.7928745 40.8622583,36.0357866 26.62,43.2575001 C12.3777418,36.0357866 3.50440845,23.7928745 0,6.52876364 C0.00216390331,6.52764297 0.00432787368,6.52652244 0.0064919111,6.52540204 L0,6.51644187 C8.08211192,2.33535505 17.0988465,-7.10542736e-15 26.6080974,-7.10542736e-15 C26.6160322,1.62629093e-06 26.6239672,-7.10542736e-15 26.6319026,-7.10542736e-15 C36.1411536,-7.10542736e-15 45.1578882,2.33535505 53.2400001,6.51644187 L53.2335082,6.52540204 Z" id="Combined-Shape" fill="#EC0100"></path>
            <path d="M53.2335082,6.52540204 C53.2356722,6.52652244 53.2378362,6.52764297 53.2400001,6.52876364 C49.7355916,23.7928745 40.8622583,36.0357866 26.62,43.2575001 C12.3777418,36.0357866 3.50440845,23.7928745 0,6.52876364 C0.00216390331,6.52764297 0.00432787368,6.52652244 0.0064919111,6.52540204 L0,6.51644187 C8.08211192,2.33535505 17.0988465,-7.10542736e-15 26.6080974,-7.10542736e-15 C26.6160322,1.62629093e-06 26.6239672,-7.10542736e-15 26.6319026,-7.10542736e-15 C36.1411536,-7.10542736e-15 45.1578882,2.33535505 53.2400001,6.51644187 L53.2335082,6.52540204 Z" id="Combined-Shape" stroke="#FAFAFA" stroke-width="3" stroke-linecap="round" stroke-linejoin="round"></path>
            <polygon id="Path-2" fill="#FAFAFA" fill-rule="nonzero" points="33.1084341 12.1902985 35.9302017 15.1141853 24.4711537 26.1730168 17.608209 19.4337585 20.4552451 16.5344704 24.4957612 20.5021668"></polygon>
        </g>
    </g>
</svg>