<svg xmlns="http://www.w3.org/2000/svg" width="16" height="20" viewBox="0 0 16 20">
    <g fill="#FF0100" fill-rule="evenodd">
        <path d="M7.768 9.455c-.19 0-.314.017-.386.034v2.468c.072.017.19.017.296.017.773.006 1.276-.42 1.276-1.321.006-.784-.453-1.198-1.186-1.198M5.137 9.998c0-.347-.24-.554-.666-.554-.174 0-.292.017-.353.033v1.114c.073.017.162.023.285.023.454 0 .734-.23.734-.616"/>
        <path d="M14.883 7.827H1.117v-6.37c0-.245.096-.34.34-.34h8.5c.122 0 .17.048.17.17v3.309c0 .916.36 1.276 1.277 1.276h3.31c.121 0 .17.048.17.17v1.785zm-2.25 2.563v.693h-1.355v1.518h-.857V8.828h2.306v.7h-1.45v.862h1.355zm-6.108 2.194V8.878c.314-.05.722-.078 1.153-.078.716 0 1.181.129 1.545.403.392.291.638.756.638 1.422 0 .722-.263 1.22-.627 1.528-.397.33-1.002.487-1.74.487-.443 0-.756-.028-.97-.056zm-3.252.017V8.878A6.987 6.987 0 0 1 4.426 8.8c.526 0 .901.1 1.153.302.24.19.403.504.403.873 0 .37-.123.684-.347.896-.291.274-.722.397-1.226.397-.112 0-.213-.005-.29-.016V12.6h-.846zm11.61 5.142c0 .245-.095.34-.34.34H1.457c-.244 0-.34-.096-.34-.34v-4.13h13.766v4.13zM11.07.602C10.605.137 10.275 0 9.617 0h-8.34C.36 0 0 .36 0 1.277v16.646C0 18.84.36 19.2 1.277 19.2h13.446c.917 0 1.277-.36 1.277-1.277V6.383c0-.658-.137-.988-.602-1.453L11.07.602z"/>
    </g>
</svg>
