<?xml version="1.0" encoding="UTF-8"?>
<svg width="36px" height="26px" viewBox="0 0 36 26" version="1.1" xmlns="http://www.w3.org/2000/svg" xmlns:xlink="http://www.w3.org/1999/xlink">
    <!-- Generator: Sketch 52.3 (67297) - http://www.bohemiancoding.com/sketch -->
    <title>SMS</title>
    <desc>Created with Sketch.</desc>
    <g id="Desktop" stroke="none" stroke-width="1" fill="none" fill-rule="evenodd">
        <g id="02.Loans-_Home_Mortgage-Loan-Against-Property_PDP_Expanded_Accordian" transform="translate(-705.000000, -6233.000000)" fill="#FFFFFF">
            <g id="Ways-to-apply" transform="translate(-10.000000, 5995.000000)">
                <g id="SMS" transform="translate(714.000000, 238.000000)">
                    <path d="M8.96431087,24.4452605 C6.88595052,25.8617809 4.58350504,26.2448067 2.30768569,25.8672674 L2.28050907,25.8623726 C0.783249939,25.5712991 0.525486812,23.5096208 1.86653731,22.8614838 C2.87773842,22.3261122 3.70927241,21.3031135 4.34190414,20.0047053 C3.03046248,17.9427388 2.32693621,15.5343338 2.32693621,12.9936009 C2.32693621,5.84921647 7.96841947,-6.88338275e-15 14.8945879,0 L24.0323483,0 C30.9585167,0 36.6,5.84921647 36.6,12.9936009 C36.6,20.1379854 30.9585167,25.9872019 24.0323483,25.9872019 L14.8945879,25.9872019 C12.7990869,25.9872019 10.7712548,25.4495322 8.96431087,24.4452605 Z M8.28589605,22.4635061 L8.84067925,22.0256584 L9.4385933,22.4024791 C11.0735439,23.4328664 12.948803,23.9872019 14.8945879,23.9872019 L24.0323483,23.9872019 C29.8374415,23.9872019 34.6,19.0492743 34.6,12.9936009 C34.6,6.93792756 29.8374415,2 24.0323483,2 L14.8945879,2 C9.08949473,2 4.32693621,6.93792756 4.32693621,12.9936009 C4.32693621,15.3237037 5.01919354,17.5103311 6.30171319,19.3387307 L6.62167046,19.7948716 L6.40215248,20.3069743 C5.75747165,21.8109183 4.8973224,23.0968813 3.75493515,24.0013118 C5.3326805,24.0379422 6.87672418,23.5756571 8.28589605,22.4635061 Z" id="Shape" fill-rule="nonzero"></path>
                    <circle id="Oval" cx="12" cy="13" r="2"></circle>
                    <circle id="Oval-Copy-2" cx="19" cy="13" r="2"></circle>
                    <circle id="Oval-Copy-3" cx="26" cy="13" r="2"></circle>
                </g>
            </g>
        </g>
    </g>
</svg>