<?xml version="1.0" encoding="UTF-8"?>
<svg width="64px" height="64px" viewBox="0 0 64 64" version="1.1" xmlns="http://www.w3.org/2000/svg" xmlns:xlink="http://www.w3.org/1999/xlink">
    <!-- Generator: Sketch 52 (66869) - http://www.bohemiancoding.com/sketch -->
    <title>Respect</title>
    <desc>Created with Sketch.</desc>
    <g id="Respect" stroke="none" stroke-width="1" fill="none" fill-rule="evenodd">
        <g id="Group-2" transform="translate(3.000000, 12.000000)" fill="#EC0100">
            <path d="M40.3923384,0.0999073661 C35.4878858,0.0999073661 31.5034801,4.07751933 31.5034801,9.01304312 C31.5034801,13.9176955 35.4816915,17.9320734 40.3923384,17.9382677 C45.3217678,17.9382677 49.305674,13.9176955 49.305674,9.01304312 C49.305674,4.07751933 45.328062,0.0999073661 40.3923384,0.0999073661 Z" id="Path" fill-opacity="0.5"></path>
            <path d="M17.5308312,3.88790942 C15.0693136,3.88790942 12.8331869,4.8912791 11.2335701,6.51587278 C9.60278211,8.12178378 8.60560669,10.3579105 8.60560669,12.813134 C8.60560669,17.7486578 12.6201844,21.7325639 17.5308312,21.7262697 C22.441578,21.7262697 26.443957,17.7486578 26.443957,12.813134 C26.443957,7.90258702 22.4354837,3.88790942 17.5308312,3.88790942 Z" id="Path"></path>
            <path d="M38.1036604,20.1907792 C34.2407421,20.1907792 30.7301971,21.6476284 28.0762578,24.0781748 C32.9870046,26.7009429 36.4091316,31.7994156 36.6261304,37.7020427 L40.9010667,37.7020427 C46.5746062,37.7020427 52.2434501,36.9154721 57.6131713,35.0864679 C57.6441425,35.0794744 57.6790102,35.06259 57.7100814,35.0500017 C57.6356504,26.8158364 50.933165,20.1845849 42.7174825,20.1907792 L38.1036604,20.1907792 Z" id="Path" fill-opacity="0.5"></path>
            <path d="M15.2177759,23.9910698 C6.95883358,23.9910698 0.225276918,30.6874609 0.225276918,38.9713801 L0.225276918,40.5092542 C5.71888326,41.1851275 11.5286964,41.5266109 17.5308312,41.5266109 C23.5267718,41.5266109 29.3307804,41.1851275 34.8241869,40.5092542 L34.8241869,38.9713801 C34.8241869,30.6874609 28.0907301,23.9910698 19.8317978,23.9910698 L15.2177759,23.9910698 Z" id="Path"></path>
        </g>
    </g>
</svg>