<?xml version="1.0" encoding="UTF-8"?>
<svg width="26px" height="32px" viewBox="0 0 26 32" version="1.1" xmlns="http://www.w3.org/2000/svg" xmlns:xlink="http://www.w3.org/1999/xlink">
    <!-- Generator: Sketch 52.1 (67048) - http://www.bohemiancoding.com/sketch -->
    <title>Stroke 1</title>
    <desc>Created with Sketch.</desc>
    <g id="Desktop" stroke="none" stroke-width="1" fill="none" fill-rule="evenodd" stroke-linecap="round" stroke-linejoin="round">
        <g id="02.Loans-_Home_Mortgage-Loan-Against_Property_PDP_logos-underneath" transform="translate(-1019.000000, -4177.000000)" stroke="#FFFFFF" stroke-width="2">
            <g id="Ways-to-apply" transform="translate(0.000000, 3862.000000)">
                <g id="Group-2" transform="translate(992.000000, 291.000000)">
                    <path d="M52,37 C52,43.6272 40,55 40,55 C40,55 28,43.6272 28,37 C28,30.3728 33.3728,25 40,25 C46.6272,25 52,30.3728 52,37 Z M46,36.5 C46,35.8193516 45.4596105,35.4860124 44.6432001,34.9319669 C43.8469941,34.3916974 42.4920115,33.5970578 41.685543,33.1609811 C40.8789675,32.7249043 39.5677078,32.0528901 38.6614997,31.6592084 C37.7484499,31.2626162 37.0186301,31 36.5771249,31 C36.136475,31 35.8298801,31.1259238 35.6131898,31.388152 C35.3963925,31.649701 35.2675757,32.0332934 35.1809851,32.5184591 C35.0942875,33.0030427 35.0488542,33.5898788 35.0249082,34.2594677 C35.0018173,34.9296386 35,36.5 35,36.5 C35,36.5 35.0018173,38.0703614 35.0249082,38.7404353 C35.0488542,39.4101212 35.0942875,39.9970543 35.1809851,40.4815409 C35.2675757,40.9666096 35.3963925,41.350202 35.6131898,41.611848 C35.8298801,41.8738821 36.136475,42 36.5771249,42 C37.0186301,42 37.7484499,41.7372868 38.6614997,41.3406946 C39.5677078,40.9471099 40.8789675,40.2749987 41.685543,39.8389219 C42.4920115,39.4029422 43.8469941,38.6083026 44.6432001,38.0681301 C45.4596105,37.5139876 46,37.1807454 46,36.5" id="Stroke-1"></path>
                </g>
            </g>
        </g>
    </g>
</svg>