<?xml version="1.0" encoding="UTF-8"?>
<svg width="18px" height="18px" viewBox="0 0 18 18" version="1.1" xmlns="http://www.w3.org/2000/svg" xmlns:xlink="http://www.w3.org/1999/xlink">
    <!-- Generator: Sketch 51.2 (57519) - http://www.bohemiancoding.com/sketch -->
    <title>linkedin-logo</title>
    <desc>Created with Sketch.</desc>
    <defs></defs>
    <g id="Page-1" stroke="none" stroke-width="1" fill="none" fill-rule="evenodd" fill-opacity="0.3">
        <g id="Grey" transform="translate(-253.000000, -317.000000)" fill="#FFFFFF" fill-rule="nonzero">
            <g id="FOOTER">
                <g id="Content" transform="translate(240.000000, 156.000000)">
                    <g id="Group-5" transform="translate(1.000000, 149.000000)">
                        <g id="linkedin-logo" transform="translate(12.000000, 12.000000)">
                            <path d="M17.963123,10.5237355 L17.963123,17.1648167 L14.1130441,17.1648167 L14.1130441,10.9685151 C14.1130441,9.4119536 13.5561717,8.34966125 12.1625708,8.34966125 C11.0987332,8.34966125 10.4656427,9.06556845 10.187123,9.75808817 C10.0855545,10.0056613 10.0594107,10.3502506 10.0594107,10.6968028 L10.0594107,17.1648167 L6.20803712,17.1648167 C6.20803712,17.1648167 6.25990719,6.67031555 6.20803712,5.58300696 L10.0590348,5.58300696 L10.0590348,7.22468213 C10.0512251,7.23696056 10.0410766,7.25019954 10.0337262,7.26210209 L10.0590348,7.26210209 L10.0590348,7.22468213 C10.5706775,6.43664965 11.4844176,5.31091879 13.529652,5.31091879 C16.0635592,5.31087703 17.963123,6.96625058 17.963123,10.5237355 Z M2.17933643,0 C0.861786543,0 0,0.864208817 0,2.00067285 C0,3.11237123 0.836853828,4.00280742 2.1282181,4.00280742 L2.15394432,4.00280742 C3.4970116,4.00280742 4.33227842,3.11253828 4.33227842,2.00067285 C4.30696984,0.864208817 3.4970116,0 2.17933643,0 Z M0.228737819,17.1648167 L4.07864965,17.1648167 L4.07864965,5.58300696 L0.228737819,5.58300696 L0.228737819,17.1648167 Z" id="LinkedIn"></path>
                        </g>
                    </g>
                </g>
            </g>
        </g>
    </g>
</svg>