<?xml version="1.0" encoding="UTF-8"?>
<svg width="18px" height="15px" viewBox="0 0 18 15" version="1.1" xmlns="http://www.w3.org/2000/svg" xmlns:xlink="http://www.w3.org/1999/xlink">
    <!-- Generator: Sketch 51.2 (57519) - http://www.bohemiancoding.com/sketch -->
    <title>twitter-logo-silhouette</title>
    <desc>Created with Sketch.</desc>
    <defs></defs>
    <g id="Page-1" stroke="none" stroke-width="1" fill="none" fill-rule="evenodd" opacity="0.3">
        <g id="Grey" transform="translate(-309.000000, -319.000000)" fill="#FFFFFF" fill-rule="nonzero">
            <g id="FOOTER">
                <g id="Content" transform="translate(240.000000, 156.000000)">
                    <g id="Group-5" transform="translate(1.000000, 149.000000)">
                        <g id="twitter-logo-silhouette" transform="translate(68.000000, 14.000000)">
                            <path d="M17.9999997,1.74432318 C17.3374998,2.03788195 16.626647,2.23697015 15.8797648,2.32585248 C16.6423823,1.8691761 17.2261469,1.1448233 17.5028233,0.284352887 C16.7874705,0.707264568 15.997853,1.01435274 15.1565002,1.1808233 C14.4827651,0.462088146 13.5244417,0.0144117647 12.4615008,0.0144117647 C10.4222659,0.0144117647 8.76882505,1.66785261 8.76882505,3.70596985 C8.76882505,3.99502862 8.80144269,4.27735209 8.86444268,4.54732263 C5.79603152,4.39320501 3.07517913,2.92311707 1.25415008,0.689264571 C0.935826611,1.23367623 0.754738412,1.86802904 0.754738412,2.54517597 C0.754738412,3.82632277 1.40712063,4.95673431 2.39694397,5.61808712 C1.79179703,5.59785183 1.22265008,5.43138127 0.724385477,5.15467545 L0.724385477,5.20079308 C0.724385477,6.98920449 1.99764993,8.48179243 3.68594371,8.82149824 C3.37662024,8.90473352 3.05044384,8.95085116 2.71300273,8.95085116 C2.4745616,8.95085116 2.24397341,8.92723352 2.01788522,8.88223353 C2.48803218,10.3500862 3.85129662,11.4174977 5.46650218,11.4467624 C4.20335537,12.4365858 2.61064981,13.0248503 0.880738387,13.0248503 C0.582679622,13.0248503 0.289091446,13.0068504 3.26797386e-05,12.9742327 C1.63435588,14.0236737 3.5746202,14.6355559 5.65997273,14.6355559 C12.4525596,14.6355559 16.1655,9.00935115 16.1655,4.13002859 L16.1531177,3.65199927 C16.8785881,3.1345582 17.5062057,2.48444068 17.9999997,1.74432318 Z" id="Shape"></path>
                        </g>
                    </g>
                </g>
            </g>
        </g>
    </g>
</svg>